<svg width="24" height="30" viewBox="0 0 24 30" fill="none" xmlns="http://www.w3.org/2000/svg">
<path fill-rule="evenodd" clip-rule="evenodd" d="M3.99995 0C1.79082 0 -4.57764e-05 1.79086 -4.57764e-05 4V23.1586C1.6814 19.8318 4.64947 17.2659 8.25003 16.1151L7.73843 15.55C7.62333 15.413 7.66279 15.2055 7.81849 15.1283L8.41663 14.8316C8.49186 14.7943 8.58104 14.7956 8.65704 14.8354L9.74381 15.4034L11.2823 14.6404L9.23619 12.3571C9.11434 12.2211 9.15126 12.0074 9.31026 11.9285L10.29 11.4426C10.3322 11.4217 10.3793 11.4126 10.4266 11.4164C10.474 11.4201 10.5198 11.4365 10.5595 11.4638L13.5386 13.5214L15.2481 12.6736C15.7768 12.4114 16.9031 12.4034 17.1735 12.9487C17.4439 13.4939 16.7559 14.3857 16.2272 14.648L14.5178 15.4957L14.3527 19.1126C14.3482 19.2106 14.2924 19.2974 14.2066 19.34L13.2269 19.8259C13.0679 19.9047 12.8753 19.8046 12.8408 19.6253L12.2615 16.6147L10.723 17.3777L10.5174 18.5866C10.5031 18.6712 10.4503 18.7429 10.3749 18.7803L9.7768 19.077C9.6211 19.1542 9.43201 19.06 9.39259 18.8854L9.19519 17.8305C5.451 20.3485 2.98759 24.6246 2.98759 29.4759C2.98759 29.6085 2.98943 29.7406 2.99309 29.8722C3.31477 29.9556 3.65218 30 3.99995 30H8.99995C17.2842 30 24 23.2843 24 15C24 6.71573 17.2842 0 8.99995 0H3.99995Z" fill="#A276AE"/>
</svg>
