<svg width="410" height="280" viewBox="0 0 410 280" fill="none" xmlns="http://www.w3.org/2000/svg">
<path d="M238.212 41.4021C211.929 40.5684 186.893 32.8016 162.991 24.3071C139.088 15.8126 115.406 6.38929 89.7503 1.89887C73.2481 -0.997226 54.3805 -1.39215 41.0834 6.68913C28.2923 14.4779 24.1557 27.9272 21.9334 40.4075C20.2612 49.7942 19.2784 59.6746 23.8587 68.4652C27.0418 74.5646 32.6892 79.6949 36.5947 85.5383C50.1889 105.877 40.581 130.954 25.85 150.81C18.941 160.113 10.9283 169.013 5.59621 178.927C0.264151 188.84 -2.19652 200.205 2.46445 210.319C7.08874 220.346 18.1049 227.871 30.0415 233.173C54.2815 243.931 82.8487 247.01 110.719 248.755C172.361 252.627 234.336 250.941 296.175 249.27C319.054 248.649 342.015 248.023 364.542 244.783C377.04 242.984 389.944 240.132 399.013 233.243C410.536 224.5 413.389 209.69 405.669 198.727C392.724 180.334 356.925 175.763 347.875 156.028C342.884 145.161 348.018 133.053 355.253 122.983C370.78 101.368 396.809 82.3936 398.181 57.6963C399.123 40.7256 386.611 23.7293 367.263 15.6992C346.984 7.28883 318.856 8.34196 303.898 22.2813C288.492 36.6191 261.421 42.1407 238.212 41.4021Z" fill="#A276AE" fill-opacity="0.15"/>
<path d="M294.437 280C320.563 280 341.743 276.562 341.743 272.321C341.743 268.08 320.563 264.642 294.437 264.642C268.31 264.642 247.13 268.08 247.13 272.321C247.13 276.562 268.31 280 294.437 280Z" fill="#A276AE" fill-opacity="0.15"/>
<path d="M108.324 142.45L108.207 148.9L107.246 201.198L99.0281 220.392L70.7029 220.714V145.419L100.264 143.086L108.324 142.45Z" fill="#5F5D7E"/>
<path opacity="0.1" d="M108.324 142.45L108.207 148.9L107.246 201.198L99.0281 220.392L70.7029 220.714V145.419L100.264 143.086L108.324 142.45Z" fill="black"/>
<path d="M108.324 142.45L108.207 148.9L107.246 201.198L99.0281 220.392L101.192 149.025L101.184 148.977L100.264 143.086L108.324 142.45Z" fill="#5F5D7E"/>
<path opacity="0.1" d="M100.264 143.086L108.324 142.45L108.207 148.9L101.184 148.977L70.7029 149.317V145.419L100.264 143.086Z" fill="black"/>
<path d="M362.932 145.419V220.279H356.338L329.957 201.092V143.309L353.526 141.101L354.971 141.763L356.338 142.392L362.932 145.419Z" fill="#5F5D7E"/>
<path opacity="0.1" d="M362.932 141.763H356.338V220.279H362.932V141.763Z" fill="black"/>
<path opacity="0.1" d="M362.932 141.763V146.066L356.338 146.143L329.957 146.432V143.309L353.526 141.101L354.971 141.763L356.338 142.392V141.763H362.932Z" fill="black"/>
<path d="M362.932 139.32V145.419L38.9197 149.025V141.262L69.4048 135.115L334.713 133.177L362.932 139.32Z" fill="#5F5D7E"/>
<path opacity="0.1" d="M362.932 139.32V145.419L38.9197 149.025V141.262L362.932 139.32Z" fill="black"/>
<path opacity="0.1" d="M94.1324 138.014C102.199 138.014 108.739 137.597 108.739 137.082C108.739 136.567 102.199 136.15 94.1324 136.15C86.0656 136.15 79.5261 136.567 79.5261 137.082C79.5261 137.597 86.0656 138.014 94.1324 138.014Z" fill="black"/>
<path d="M106.392 101.031C106.083 101.457 105.836 101.925 105.658 102.42C105.614 102.541 105.57 102.68 105.526 102.811C105.443 102.772 105.356 102.742 105.266 102.724C104.889 102.627 104.499 102.593 104.111 102.621C104.111 102.473 104.118 102.315 104.133 102.15C104.181 100.446 103.979 98.0687 102.347 99.0743C100.785 100.043 101.9 101.656 102.908 102.698C102.996 102.79 103.084 102.874 103.168 102.954C102.248 103.612 102.068 105.13 101.918 106.717C101.768 108.304 100.414 110.044 99.5196 111.032L99.2629 111.306C98.9008 111.016 98.481 110.807 98.0315 110.691C97.5819 110.576 97.1129 110.557 96.6556 110.637C96.614 110.498 96.5737 110.352 96.5345 110.198C95.8011 107.583 94.3012 103.053 92.376 102.058L92.629 101.74C93.4468 100.672 94.3672 99.089 92.9957 98.6831C91.6242 98.2772 91.5289 100.058 91.5912 101.389C91.5912 101.557 91.6132 101.714 91.6279 101.864C91.3579 101.879 91.0937 101.947 90.851 102.066C90.6084 102.185 90.3924 102.351 90.216 102.556C90.15 102.475 90.084 102.395 90.007 102.307C88.9068 101.009 86.8826 98.9537 86.2701 100.511C85.7017 101.974 87.4803 103.839 88.7345 104.929L88.8115 104.998C87.9717 108.399 91.6389 111.171 93.6155 112.381L93.8685 112.538C91.1438 115.738 89.4679 121.739 89.4679 121.739L97.0956 123.099C97.0956 123.099 102.153 118.747 101.496 114.659H101.548C106.601 113.65 107.752 108.275 106.964 105.086L107.056 105.049C107.975 104.671 108.781 104.063 109.395 103.283C110.811 101.32 107.844 99.1073 106.392 101.031Z" fill="#A276AE"/>
<path opacity="0.1" d="M106.392 101.031C106.083 101.457 105.836 101.925 105.658 102.42C105.614 102.541 105.57 102.68 105.526 102.811C105.443 102.772 105.356 102.742 105.266 102.724C104.889 102.627 104.499 102.593 104.111 102.621C104.111 102.473 104.118 102.315 104.133 102.15C104.181 100.446 103.979 98.0687 102.347 99.0743C100.785 100.043 101.9 101.656 102.908 102.698C102.996 102.79 103.084 102.874 103.168 102.954C102.248 103.612 102.068 105.13 101.918 106.717C101.768 108.304 100.414 110.044 99.5196 111.032L99.2629 111.306C98.9008 111.016 98.481 110.807 98.0315 110.691C97.5819 110.576 97.1129 110.557 96.6556 110.637C96.614 110.498 96.5737 110.352 96.5345 110.198C95.8011 107.583 94.3012 103.053 92.376 102.058L92.629 101.74C93.4468 100.672 94.3672 99.089 92.9957 98.6831C91.6242 98.2772 91.5289 100.058 91.5912 101.389C91.5912 101.557 91.6132 101.714 91.6279 101.864C91.3579 101.879 91.0937 101.947 90.851 102.066C90.6084 102.185 90.3924 102.351 90.216 102.556C90.15 102.475 90.084 102.395 90.007 102.307C88.9068 101.009 86.8826 98.9537 86.2701 100.511C85.7017 101.974 87.4803 103.839 88.7345 104.929L88.8115 104.998C87.9717 108.399 91.6389 111.171 93.6155 112.381L93.8685 112.538C91.1438 115.738 89.4679 121.739 89.4679 121.739L97.0956 123.099C97.0956 123.099 102.153 118.747 101.496 114.659H101.548C106.601 113.65 107.752 108.275 106.964 105.086L107.056 105.049C107.975 104.671 108.781 104.063 109.395 103.283C110.811 101.32 107.844 99.1073 106.392 101.031Z" fill="black"/>
<path d="M91.2062 103.225L90.315 105.828C90.315 105.828 89.82 105.481 89.1929 104.929C87.9424 103.832 86.1601 101.959 86.7322 100.511C87.3446 98.9537 89.3652 101.009 90.4691 102.307C90.9128 102.826 91.2062 103.225 91.2062 103.225Z" fill="#A276AE"/>
<path d="M93.0874 101.74C92.8157 102.095 92.5256 102.436 92.2183 102.76C92.1423 102.306 92.0897 101.848 92.0606 101.389C91.9872 100.058 92.1266 98.2881 93.4651 98.6831C94.8036 99.078 93.9052 100.672 93.0874 101.74Z" fill="#A276AE"/>
<path d="M104.591 102.15C104.566 103.005 104.481 103.689 104.481 103.689C104.092 103.385 103.724 103.054 103.381 102.698C102.373 101.656 101.254 100.043 102.82 99.0743C104.437 98.0687 104.639 100.446 104.591 102.15Z" fill="#A276AE"/>
<path d="M109.861 103.272C109.246 104.052 108.441 104.66 107.521 105.038C107.266 105.148 107.004 105.242 106.737 105.32L105.684 103.857C105.797 103.371 105.943 102.894 106.12 102.428C106.298 101.932 106.545 101.464 106.854 101.038C108.31 99.1072 111.276 101.32 109.861 103.272Z" fill="#A276AE"/>
<path opacity="0.1" d="M90.469 102.307C90.9128 102.826 91.2025 103.225 91.2025 103.225L90.3114 105.828C90.3114 105.828 89.8163 105.481 89.1892 104.929C89.328 104.095 89.6734 103.31 90.194 102.643C90.2857 102.523 90.3774 102.409 90.469 102.307Z" fill="black"/>
<path opacity="0.1" d="M93.0873 101.74C92.8157 102.095 92.5256 102.436 92.2182 102.76C92.1423 102.306 92.0897 101.848 92.0605 101.389C92.431 101.397 92.7898 101.52 93.0873 101.74Z" fill="black"/>
<path d="M97.4731 112.074L95.2545 113.047C94.8497 112.845 94.4555 112.623 94.0737 112.381C91.7414 110.951 87.0547 107.353 90.1975 103.108C93.3403 98.8623 95.9623 106.475 96.9927 110.198C97.3045 111.31 97.4731 112.074 97.4731 112.074Z" fill="#A276AE"/>
<path opacity="0.1" d="M103.37 102.702C103.692 102.369 104.129 102.173 104.591 102.153C104.566 103.009 104.481 103.693 104.481 103.693C104.088 103.389 103.716 103.058 103.37 102.702Z" fill="black"/>
<path opacity="0.1" d="M107.521 105.038C107.266 105.148 107.004 105.242 106.737 105.32L105.684 103.857C105.797 103.371 105.943 102.894 106.12 102.428C106.799 102.815 107.298 103.799 107.521 105.038Z" fill="black"/>
<path d="M102.013 114.648C101.891 114.673 101.769 114.695 101.646 114.714C94.2131 115.844 99.1967 111.84 99.1967 111.84C99.1967 111.84 99.5305 111.533 99.9852 111.032C100.88 110.044 102.233 108.315 102.387 106.717C102.618 104.314 102.89 102.062 105.735 102.724C108.581 103.386 109.054 113.244 102.013 114.648Z" fill="#A276AE"/>
<path d="M101.877 133.111H87.6672V136.837H101.877V133.111Z" fill="#474157"/>
<path d="M103.975 121.003H85.4082V134.007H103.975V121.003Z" fill="#474157"/>
<path opacity="0.1" d="M101.738 133.111H87.5278V136.837H101.738V133.111Z" fill="black"/>
<path opacity="0.1" d="M103.916 121.003H85.3496V134.007H103.916V121.003Z" fill="black"/>
<path d="M102.813 133.111H88.6023V136.837H102.813V133.111Z" fill="#474157"/>
<path opacity="0.1" d="M96.9928 110.198C97.3045 111.295 97.4732 112.074 97.4732 112.074L95.2546 113.047C94.8497 112.845 94.4556 112.623 94.0737 112.381C94.9429 111.284 95.922 110.454 96.9928 110.198Z" fill="black"/>
<path opacity="0.1" d="M102.013 114.648C101.891 114.673 101.769 114.695 101.646 114.714C94.2131 115.844 99.1967 111.84 99.1967 111.84C99.1967 111.84 99.5305 111.533 99.9852 111.032C101.364 112.14 101.951 113.387 102.013 114.648Z" fill="black"/>
<path d="M89.9226 121.738C89.9226 121.738 94.0885 106.874 99.9266 111.456C105.765 116.038 97.5503 123.099 97.5503 123.099L89.9226 121.738Z" fill="#A276AE"/>
<path opacity="0.1" d="M92.0275 105.901C92.2847 105.901 92.4932 105.693 92.4932 105.437C92.4932 105.181 92.2847 104.973 92.0275 104.973C91.7703 104.973 91.5618 105.181 91.5618 105.437C91.5618 105.693 91.7703 105.901 92.0275 105.901Z" fill="black"/>
<path opacity="0.1" d="M91.9872 108.077C92.2444 108.077 92.4529 107.869 92.4529 107.613C92.4529 107.356 92.2444 107.148 91.9872 107.148C91.73 107.148 91.5215 107.356 91.5215 107.613C91.5215 107.869 91.73 108.077 91.9872 108.077Z" fill="black"/>
<path opacity="0.1" d="M105.534 106.329C105.791 106.329 105.999 106.121 105.999 105.865C105.999 105.608 105.791 105.4 105.534 105.4C105.276 105.4 105.068 105.608 105.068 105.865C105.068 106.121 105.276 106.329 105.534 106.329Z" fill="black"/>
<path opacity="0.1" d="M94.6349 117.467C94.8921 117.467 95.1006 117.26 95.1006 117.003C95.1006 116.747 94.8921 116.539 94.6349 116.539C94.3777 116.539 94.1692 116.747 94.1692 117.003C94.1692 117.26 94.3777 117.467 94.6349 117.467Z" fill="black"/>
<path opacity="0.1" d="M104.558 109.938C104.815 109.938 105.024 109.73 105.024 109.474C105.024 109.217 104.815 109.01 104.558 109.01C104.301 109.01 104.093 109.217 104.093 109.474C104.093 109.73 104.301 109.938 104.558 109.938Z" fill="black"/>
<path opacity="0.1" d="M99.7323 114.751C99.9895 114.751 100.198 114.543 100.198 114.286C100.198 114.03 99.9895 113.822 99.7323 113.822C99.4751 113.822 99.2666 114.03 99.2666 114.286C99.2666 114.543 99.4751 114.751 99.7323 114.751Z" fill="black"/>
<path opacity="0.1" d="M93.6227 106.834C93.8799 106.834 94.0884 106.626 94.0884 106.369C94.0884 106.113 93.8799 105.905 93.6227 105.905C93.3655 105.905 93.157 106.113 93.157 106.369C93.157 106.626 93.3655 106.834 93.6227 106.834Z" fill="black"/>
<path opacity="0.1" d="M104.246 107.726C104.504 107.726 104.712 107.518 104.712 107.262C104.712 107.005 104.504 106.797 104.246 106.797C103.989 106.797 103.781 107.005 103.781 107.262C103.781 107.518 103.989 107.726 104.246 107.726Z" fill="black"/>
<path opacity="0.1" d="M102.651 111.335C102.909 111.335 103.117 111.127 103.117 110.871C103.117 110.614 102.909 110.406 102.651 110.406C102.394 110.406 102.186 110.614 102.186 110.871C102.186 111.127 102.394 111.335 102.651 111.335Z" fill="black"/>
<path opacity="0.1" d="M97.7482 117.12C98.0054 117.12 98.2139 116.912 98.2139 116.656C98.2139 116.399 98.0054 116.191 97.7482 116.191C97.491 116.191 97.2825 116.399 97.2825 116.656C97.2825 116.912 97.491 117.12 97.7482 117.12Z" fill="black"/>
<path opacity="0.1" d="M96.736 114.831C96.9932 114.831 97.2017 114.623 97.2017 114.367C97.2017 114.11 96.9932 113.902 96.736 113.902C96.4788 113.902 96.2703 114.11 96.2703 114.367C96.2703 114.623 96.4788 114.831 96.736 114.831Z" fill="black"/>
<path opacity="0.1" d="M94.3231 109.668C94.5804 109.668 94.7889 109.46 94.7889 109.203C94.7889 108.947 94.5804 108.739 94.3231 108.739C94.0659 108.739 93.8574 108.947 93.8574 109.203C93.8574 109.46 94.0659 109.668 94.3231 109.668Z" fill="black"/>
<path opacity="0.1" d="M102.813 133.111H88.6023V134.471H102.813V133.111Z" fill="black"/>
<path d="M104.91 121.003H86.3435V134.007H104.91V121.003Z" fill="#474157"/>
<path opacity="0.1" d="M98.3717 119.215C98.6289 119.215 98.8375 119.007 98.8375 118.751C98.8375 118.495 98.6289 118.287 98.3717 118.287C98.1145 118.287 97.906 118.495 97.906 118.751C97.906 119.007 98.1145 119.215 98.3717 119.215Z" fill="black"/>
<path opacity="0.1" d="M95.5663 119.797C95.8235 119.797 96.032 119.589 96.032 119.332C96.032 119.076 95.8235 118.868 95.5663 118.868C95.3091 118.868 95.1006 119.076 95.1006 119.332C95.1006 119.589 95.3091 119.797 95.5663 119.797Z" fill="black"/>
<path d="M140.089 170.691C140.089 170.691 142.403 173.707 139.022 178.264C135.641 182.82 132.85 186.674 133.976 189.504C133.976 189.504 139.081 181.043 143.232 180.926C147.383 180.809 144.644 175.777 140.089 170.691Z" fill="#A276AE"/>
<path opacity="0.1" d="M140.089 170.691C140.29 170.982 140.449 171.299 140.562 171.634C144.615 176.388 146.775 180.816 142.876 180.926C139.25 181.028 134.897 187.508 133.855 189.131C133.888 189.256 133.929 189.378 133.976 189.497C133.976 189.497 139.081 181.035 143.232 180.918C147.383 180.801 144.644 175.777 140.089 170.691Z" fill="black"/>
<path d="M144.376 174.534C144.376 175.598 144.255 176.457 144.109 176.457C143.962 176.457 143.841 175.598 143.841 174.534C143.841 173.47 143.991 173.974 144.138 173.974C144.285 173.974 144.376 173.473 144.376 174.534Z" fill="#FFD037"/>
<path d="M145.85 175.803C144.915 176.311 144.101 176.618 144.017 176.49C143.932 176.362 144.648 175.843 145.583 175.335C146.518 174.826 146.147 175.196 146.217 175.335C146.287 175.474 146.785 175.294 145.85 175.803Z" fill="#FFD037"/>
<path d="M127.852 170.691C127.852 170.691 125.534 173.707 128.919 178.264C132.304 182.82 135.091 186.674 133.961 189.504C133.961 189.504 128.86 181.043 124.706 180.926C120.551 180.809 123.283 175.777 127.852 170.691Z" fill="#A276AE"/>
<path opacity="0.1" d="M127.852 170.691C127.65 170.981 127.49 171.299 127.379 171.634C123.323 176.388 121.167 180.816 125.061 180.926C128.692 181.028 133.045 187.508 134.086 189.131C134.049 189.259 134.009 189.384 133.961 189.497C133.961 189.497 128.86 181.035 124.706 180.918C120.551 180.801 123.283 175.777 127.852 170.691Z" fill="black"/>
<path d="M123.547 174.534C123.547 175.598 123.668 176.457 123.815 176.457C123.961 176.457 124.082 175.598 124.082 174.534C124.082 173.47 123.932 173.974 123.785 173.974C123.639 173.974 123.547 173.473 123.547 174.534Z" fill="#FFD037"/>
<path d="M122.073 175.803C123.008 176.311 123.822 176.618 123.906 176.49C123.991 176.362 123.279 175.843 122.344 175.335C121.409 174.826 121.776 175.196 121.706 175.335C121.636 175.474 121.138 175.294 122.073 175.803Z" fill="#FFD037"/>
<path d="M133.965 212.589C147.328 212.589 158.161 210.931 158.161 208.885C158.161 206.839 147.328 205.18 133.965 205.18C120.602 205.18 109.769 206.839 109.769 208.885C109.769 210.931 120.602 212.589 133.965 212.589Z" fill="#A276AE" fill-opacity="0.15"/>
<path d="M146.415 185.438L146.298 186.381L146.137 187.712L146.071 188.265L145.909 189.599L145.836 190.152L145.675 191.483L143.823 206.618C143.658 207.971 141.446 209.024 138.773 209.024H129.15C126.481 209.024 124.269 207.971 124.104 206.618L122.249 191.483L122.087 190.152L122.021 189.599L121.853 188.265L121.787 187.712L121.625 186.381L121.508 185.438C121.416 184.674 122.608 184.03 124.126 184.03H143.801C145.311 184.03 146.511 184.674 146.415 185.438Z" fill="#65617D"/>
<path d="M146.302 186.378L146.137 187.709H121.79L121.625 186.378H146.302Z" fill="#9D9CB5"/>
<path d="M146.07 188.265L145.909 189.596H122.021L121.856 188.265H146.07Z" fill="#9D9CB5"/>
<path d="M145.84 190.151L145.678 191.483H122.252L122.087 190.151H145.84Z" fill="#9D9CB5"/>
<path d="M207.367 134.032V134.786H185.03V134.175C186.437 133.656 187.65 132.719 188.507 131.491C189.363 130.263 189.821 128.803 189.82 127.308C189.82 125.906 189.416 124.534 188.657 123.355C187.897 122.176 186.814 121.239 185.536 120.656H207.217C205.924 121.244 204.829 122.193 204.067 123.389C203.305 124.585 202.908 125.976 202.924 127.393C202.94 128.81 203.368 130.192 204.157 131.37C204.946 132.549 206.061 133.474 207.367 134.032Z" fill="#C8CAD7"/>
<path opacity="0.1" d="M207.217 120.656C206.221 121.112 205.34 121.784 204.639 122.624C203.937 123.463 203.434 124.449 203.165 125.509H189.596C189.325 124.449 188.82 123.464 188.117 122.624C187.415 121.785 186.533 121.112 185.537 120.656H207.217Z" fill="black"/>
<path d="M159.452 116.817V121.047C159.452 123.38 161.168 125.275 163.28 125.275H229C231.112 125.275 232.828 123.38 232.828 121.047V116.817H159.452Z" fill="#C8CAD7"/>
<path opacity="0.1" d="M207.367 134.032V134.786H185.03V134.175C185.643 133.947 186.222 133.64 186.754 133.261H205.999C206.426 133.566 206.885 133.824 207.367 134.032Z" fill="black"/>
<path d="M213.634 133.495H178.771C178.153 133.495 177.652 133.994 177.652 134.61C177.652 135.226 178.153 135.725 178.771 135.725H213.634C214.252 135.725 214.753 135.226 214.753 134.61C214.753 133.994 214.252 133.495 213.634 133.495Z" fill="#C8CAD7"/>
<path d="M232.828 70.49C232.828 69.9887 232.729 69.4923 232.537 69.0291C232.344 68.5659 232.062 68.1451 231.707 67.7906C231.351 67.4361 230.929 67.1549 230.465 66.963C230 66.7712 229.502 66.6724 229 66.6724H163.28C162.265 66.6724 161.291 67.0746 160.573 67.7906C159.855 68.5065 159.452 69.4775 159.452 70.49V117.639H232.828V70.49Z" fill="#5F5D7E"/>
<path d="M230.826 72.1904V112.706C230.826 113.205 230.627 113.683 230.274 114.036C229.92 114.388 229.441 114.586 228.941 114.586H163.339C162.839 114.586 162.36 114.388 162.006 114.036C161.653 113.683 161.454 113.205 161.454 112.706V72.1904C161.46 71.8598 161.553 71.5367 161.726 71.2543C161.891 70.9689 162.129 70.7318 162.416 70.5669C162.702 70.402 163.027 70.3149 163.358 70.3145H228.941C229.44 70.3145 229.919 70.512 230.273 70.8637C230.626 71.2154 230.825 71.6925 230.826 72.1904Z" fill="#A276AE"/>
<path d="M196.142 69.371C196.63 69.371 197.026 68.9765 197.026 68.4898C197.026 68.0031 196.63 67.6085 196.142 67.6085C195.654 67.6085 195.258 68.0031 195.258 68.4898C195.258 68.9765 195.654 69.371 196.142 69.371Z" fill="white"/>
<path d="M196.142 123.395C197.345 123.395 198.32 122.423 198.32 121.223C198.32 120.023 197.345 119.051 196.142 119.051C194.939 119.051 193.964 120.023 193.964 121.223C193.964 122.423 194.939 123.395 196.142 123.395Z" fill="white"/>
<path d="M230.826 72.1904H161.454C161.454 71.6919 161.653 71.2138 162.006 70.8613C162.36 70.5088 162.839 70.3108 163.339 70.3108H228.941C229.441 70.3108 229.92 70.5088 230.274 70.8613C230.627 71.2138 230.826 71.6919 230.826 72.1904Z" fill="white"/>
<path d="M163.343 71.7186C163.602 71.7186 163.812 71.5091 163.812 71.2506C163.812 70.9921 163.602 70.7825 163.343 70.7825C163.083 70.7825 162.873 70.9921 162.873 71.2506C162.873 71.5091 163.083 71.7186 163.343 71.7186Z" fill="#EDEDF4"/>
<path d="M164.755 71.7186C165.014 71.7186 165.224 71.5091 165.224 71.2506C165.224 70.9921 165.014 70.7825 164.755 70.7825C164.496 70.7825 164.285 70.9921 164.285 71.2506C164.285 71.5091 164.496 71.7186 164.755 71.7186Z" fill="#EDEDF4"/>
<path d="M166.166 71.7186C166.426 71.7186 166.636 71.5091 166.636 71.2506C166.636 70.9921 166.426 70.7825 166.166 70.7825C165.907 70.7825 165.697 70.9921 165.697 71.2506C165.697 71.5091 165.907 71.7186 166.166 71.7186Z" fill="#EDEDF4"/>
<path d="M240.936 154.261C240.936 154.261 245.337 156.046 250.739 158.185C250.924 158.801 251.066 159.429 251.164 160.064C251.259 161.308 253.731 163.059 253.731 163.059C253.731 163.059 258.315 163.885 261.766 164.855C264.446 165.586 264.817 164.123 264.472 163.553L265.275 163.86C265.455 171.261 265.66 176.658 265.66 176.658C265.66 176.658 266.834 176.658 268.686 176.746C268.708 176.98 268.73 177.221 268.755 177.477C269.463 184.791 270.765 196.858 271.773 197.86C273.24 199.275 272.591 209.704 272.026 211.547C271.462 213.39 272.026 226.653 272.026 226.653C272.026 226.653 274.296 234.756 274.106 243.598C273.915 252.44 276.563 257.047 276.563 257.047L277.513 257.116C277.513 257.361 277.483 257.603 277.472 257.848C277.428 258.649 277.395 259.449 277.384 260.177C277.325 261.288 276.943 262.358 276.284 263.256C274.764 265.423 273.716 267.883 273.207 270.478C273.096 271.058 273.018 271.644 272.973 272.233C272.973 272.379 272.954 272.46 272.954 272.46C272.954 272.46 273.834 275.042 282.093 275.901C290.351 276.76 289.156 270.803 289.156 270.803C289.156 270.803 289.196 270.635 289.247 270.328C289.609 268.314 289.62 266.254 289.28 264.236C288.991 262.664 289.24 259.943 289.6 257.449C289.636 257.19 289.677 256.934 289.713 256.681C290.404 256.537 291.053 256.237 291.609 255.804C294.194 253.452 291.609 234.759 291.609 234.759C291.609 234.759 286.945 219.471 288.081 217.259C289.218 215.046 290.538 209.707 290.538 209.707V191.102C292.372 188.151 293.197 184.114 293.538 180.439C293.56 180.194 293.582 179.953 293.6 179.708C295.13 179.737 296.596 179.682 297.928 179.591L298.294 180.322C300.458 184.502 302.658 188.641 303.197 189.252C304.331 190.543 303.384 196.437 303.197 199.385C303.01 202.332 305.277 208.227 305.277 208.227C302.442 209.883 301.874 229.41 301.874 229.41C301.874 229.41 303.953 234.2 299.604 239.542C295.254 244.885 296.956 255.018 297.524 254.648C297.675 254.549 298.595 254.699 299.904 254.915C299.667 255.79 299.241 256.604 298.657 257.299C297.253 259.04 296.773 261.768 296.633 263.947C296.551 265.083 296.551 266.223 296.633 267.359L299.783 269.553C299.783 269.553 301.738 269.553 301.738 271.275C301.738 272.997 306.527 274.712 306.527 274.712C306.527 274.712 313.649 276.676 319.135 274.712C320.913 274.076 321.456 272.983 321.247 271.655C320.814 268.88 317.092 265.073 314.408 262.309C312.596 260.433 311.771 257.947 311.404 255.793C311.364 255.562 311.331 255.336 311.302 255.113C311.523 254.988 311.72 254.826 311.885 254.634C314.155 251.869 316.612 244.318 316.612 244.318C316.612 244.318 315.49 236.602 317.947 229.589C319.78 224.4 322.006 212.238 323.04 206.281C323.418 204.12 323.488 201.916 323.246 199.736C322.769 195.388 322.036 187.332 322.296 180.955C322.384 178.874 322.322 175.565 322.179 171.685V171.63C323.524 169.096 326.444 164.961 331.314 164.62C338.373 164.127 334.717 160.262 334.717 160.262C334.717 160.262 330.576 131.253 327.848 126.105C327.807 126.015 327.759 125.928 327.705 125.845C327.302 125.205 326.862 123.925 326.396 122.218C323.708 112.326 320.268 87.958 320.268 87.958L319.846 82.0305C324.056 84.0892 331.867 87.8447 335.017 88.9417C339.418 90.4775 345.542 89.4938 347.057 84.4585C348.571 79.4233 342.267 69.2321 342.267 69.2321C341.34 65.6193 334.933 58.0975 331.6 54.364C331.277 53.8777 330.958 53.395 330.646 52.9342C329.788 51.6581 329.014 50.5318 328.523 49.8699L328.475 49.9614C328.354 49.7931 328.24 49.6359 328.141 49.5043L328.061 49.6652C326.869 47.4711 325.53 45.215 324.493 44.0046C322.08 41.1963 311.555 38.1758 310.513 39.0059C309.754 39.6093 312.904 42.2421 315.108 43.8583L313.003 42.4395L308.298 38.3806L306.226 36.9838C306.14 36.9255 306.049 36.8742 305.955 36.8302C306.494 34.7181 306.56 32.5133 306.146 30.3731C305.733 28.233 304.851 26.2101 303.564 24.4486C303.417 24.2475 303.26 24.0464 303.102 23.8526C305.269 22.0535 305.955 19.0806 305.955 16.4661V16.3673C305.795 15.3874 305.359 14.4731 304.697 13.7309C304.73 13.7967 304.763 13.8698 304.793 13.9393C304.413 13.4554 303.933 13.0594 303.386 12.7785C302.838 12.4975 302.236 12.3384 301.62 12.3121C299.787 12.2828 298.25 13.4822 296.64 14.305C294.984 15.1321 293.169 15.593 291.317 15.6561C289.466 15.7193 287.623 15.3831 285.914 14.6706C284.92 14.2465 283.919 13.6833 282.841 13.7711C281.763 13.8589 280.908 14.55 280.175 15.2703C278.411 16.9654 277.025 19.011 276.104 21.2746C275.833 21.9365 275.591 22.6422 275.067 23.1395C274.667 23.4645 274.235 23.7464 273.776 23.9806C272.985 24.4828 272.305 25.1397 271.776 25.9115C271.247 26.6833 270.881 27.554 270.699 28.471C270.357 30.2965 270.549 32.1817 271.253 33.9012C271.678 35.0914 272.373 36.1676 273.284 37.0459C273.97 37.6785 274.792 38.1429 275.518 38.739C275.847 39.0068 276.155 39.3002 276.438 39.6166C273.14 40.3444 270.125 42.011 267.758 44.4142C265.98 46.1276 264.493 48.1185 263.357 50.3087C260.288 56.0607 258.425 59.6406 257.317 61.9114C256.764 62.0796 256.423 62.1601 256.423 62.1601C256.423 62.1601 252.264 65.8424 252.326 76.4029L249.11 97.5239V108.329C249.11 108.329 244.97 120.056 245.649 129.761C245.649 129.893 245.649 130.021 245.674 130.149L245.337 131.798C244.817 132.504 244.558 133.367 244.603 134.241C244.582 134.54 244.605 134.84 244.669 135.133L242.983 143.441L243.302 143.777L242.432 146.216C239.158 151.434 240.936 154.261 240.936 154.261ZM265.257 95.0227C265.466 95.1653 265.583 95.2385 265.583 95.2385C265.583 95.2385 267.417 111.609 266.317 121.344L262.455 121.08L260.622 120.517L261.278 115.314C261.278 115.314 263.629 101.605 265.242 95.0227H265.257ZM280.432 47.5041L280.798 46.9409C280.721 47.142 280.644 47.3395 280.564 47.5223L280.432 47.5041ZM263.002 121.263L265 121.468L266.265 121.731C266.243 121.907 266.221 122.079 266.199 122.247L263.002 121.263ZM305.955 50.4843C305.954 50.3021 305.942 50.1201 305.918 49.9394L307.488 50.8682L307.583 50.9267C307.041 50.7695 306.483 50.6305 305.955 50.5025V50.4843ZM318.137 57.7245C317.922 57.3874 317.689 57.0616 317.441 56.7482C318.541 57.0114 319.223 57.165 319.223 57.165C320.101 57.0129 321.004 57.104 321.834 57.4283C322.102 57.9732 322.405 58.5008 322.74 59.008L325.637 64.6027C325.637 64.6027 325.006 64.6649 323.744 64.0506C322.483 63.4363 318.137 57.7245 318.137 57.7245ZM263.097 163.037L264.003 163.403C263.801 163.465 263.478 163.319 263.097 163.037Z" fill="url(#paint0_linear)"/>
<path d="M294.477 42.8381C295.643 43.5219 295.68 46.4436 295.5 48.7875C295.372 50.5025 295.133 51.9067 295.133 51.9067L302.721 70.2999C302.721 70.2999 305.534 57.1943 305.578 51.3436C305.581 50.8819 305.51 50.4227 305.369 49.9833C304.045 45.7671 296.608 43.4268 294.477 42.8381Z" fill="#67647E"/>
<path d="M293.931 42.6918C293.931 42.6918 294.136 42.7394 294.492 42.8381C294.321 42.7402 294.127 42.6897 293.931 42.6918Z" fill="#67647E"/>
<path d="M296.56 266.602L299.615 268.796C299.615 268.796 301.511 268.796 301.511 270.504C301.511 272.211 306.153 273.915 306.153 273.915C306.153 273.915 313.062 275.864 318.38 273.915C320.103 273.283 320.631 272.2 320.43 270.88C320.008 268.127 316.396 264.364 313.796 261.603C312.039 259.742 311.229 257.274 310.884 255.138C310.63 253.61 310.561 252.057 310.679 250.512L299.494 249.719C300.134 251.402 300.134 253.261 299.494 254.944C299.249 255.546 298.92 256.11 298.515 256.619C297.15 258.345 296.681 261.055 296.549 263.201C296.472 264.334 296.476 265.47 296.56 266.602Z" fill="#67647E"/>
<path d="M273.574 271.659C273.574 271.659 274.429 274.219 282.438 275.074C290.447 275.93 289.284 270.014 289.284 270.014C289.284 270.014 289.325 269.845 289.376 269.542C289.724 267.542 289.734 265.497 289.405 263.494C289.127 261.936 289.369 259.234 289.717 256.758C290.128 253.811 290.689 251.182 290.689 251.182L278.279 252.096C278.279 252.096 278.063 254.615 277.938 257.16C277.898 257.954 277.865 258.747 277.854 259.471C277.796 260.57 277.425 261.63 276.783 262.525C275.314 264.686 274.305 267.126 273.82 269.692C273.713 270.268 273.637 270.849 273.593 271.432C273.574 271.579 273.574 271.659 273.574 271.659Z" fill="#67647E"/>
<path d="M296.56 266.602L299.615 268.796C299.615 268.796 301.511 268.796 301.511 270.504C301.511 272.211 306.153 273.915 306.153 273.915C306.153 273.915 313.062 275.864 318.38 273.915C320.103 273.283 320.631 272.2 320.43 270.88C320.265 270.88 320.107 270.902 319.975 270.906C317.797 270.975 315.677 271.56 313.51 271.754C312.275 271.845 311.036 271.864 309.798 271.813C309.185 271.809 308.572 271.761 307.965 271.67C306.498 271.41 305.137 270.653 303.828 269.911C303.508 269.761 303.226 269.541 303.003 269.268C302.827 268.964 302.703 268.632 302.636 268.288C302.174 266.635 300.884 265.311 299.402 264.441C298.5 263.929 297.545 263.518 296.553 263.216C296.476 264.343 296.478 265.475 296.56 266.602Z" fill="#67647E"/>
<path d="M273.574 271.659C273.574 271.659 274.429 274.219 282.438 275.074C290.447 275.93 289.284 270.014 289.284 270.014C289.284 270.014 289.325 269.845 289.376 269.542C289.009 269.732 288.698 269.908 288.555 269.988C287.821 270.416 287.165 271.005 286.402 271.403C284.568 272.365 282.368 272.08 280.3 271.769C279.328 271.623 278.356 271.476 277.388 271.297C276.65 271.196 275.932 270.984 275.257 270.668C274.757 270.377 274.276 270.052 273.82 269.695C273.713 270.271 273.637 270.852 273.593 271.436C273.574 271.579 273.574 271.659 273.574 271.659Z" fill="#67647E"/>
<path opacity="0.1" d="M296.56 266.602L299.615 268.796C299.615 268.796 301.511 268.796 301.511 270.504C301.511 272.211 306.153 273.915 306.153 273.915C306.153 273.915 313.062 275.864 318.38 273.915C320.103 273.283 320.631 272.2 320.43 270.88C320.265 270.88 320.107 270.902 319.975 270.906C317.797 270.975 315.677 271.56 313.51 271.754C312.275 271.845 311.036 271.864 309.798 271.813C309.185 271.809 308.572 271.761 307.965 271.67C306.498 271.41 305.137 270.653 303.828 269.911C303.508 269.761 303.226 269.541 303.003 269.268C302.827 268.964 302.703 268.632 302.636 268.288C302.174 266.635 300.884 265.311 299.402 264.441C298.5 263.929 297.545 263.518 296.553 263.216C296.476 264.343 296.478 265.475 296.56 266.602Z" fill="black"/>
<path opacity="0.1" d="M273.574 271.659C273.574 271.659 274.429 274.219 282.438 275.074C290.447 275.93 289.284 270.014 289.284 270.014C289.284 270.014 289.325 269.845 289.376 269.542C289.009 269.732 288.698 269.908 288.555 269.988C287.821 270.416 287.165 271.005 286.402 271.403C284.568 272.365 282.368 272.08 280.3 271.769C279.328 271.623 278.356 271.476 277.388 271.297C276.65 271.196 275.932 270.984 275.257 270.668C274.757 270.377 274.276 270.052 273.82 269.695C273.713 270.271 273.637 270.852 273.593 271.436C273.574 271.579 273.574 271.659 273.574 271.659Z" fill="black"/>
<path opacity="0.1" d="M299.494 249.719C300.134 251.402 300.134 253.261 299.494 254.944C302.702 255.489 308.684 256.59 310.884 255.138C310.63 253.61 310.561 252.057 310.678 250.512L299.494 249.719Z" fill="black"/>
<path opacity="0.1" d="M277.942 257.16C280.208 257.321 286.306 257.639 289.721 256.758C290.131 253.811 290.692 251.182 290.692 251.182L278.283 252.096C278.283 252.096 278.066 254.615 277.942 257.16Z" fill="black"/>
<path d="M268.994 171.894C268.994 171.894 269.185 174.179 269.489 177.379C270.175 184.641 271.44 196.631 272.423 197.607C273.831 199.015 273.218 209.364 272.668 211.192C272.118 213.02 272.668 226.185 272.668 226.185C274.053 231.684 274.73 237.336 274.685 243.005C274.502 251.781 277.069 256.352 277.069 256.352C277.069 256.352 289.171 257.449 291.675 255.116C294.18 252.783 291.675 234.229 291.675 234.229C291.675 234.229 287.143 219.065 288.243 216.871C289.343 214.677 290.626 209.375 290.626 209.375V190.908C292.405 187.983 293.194 183.961 293.535 180.326C293.806 177.217 293.815 174.09 293.56 170.979C293.56 170.979 295.838 175.623 298.159 180.216C300.256 184.367 302.391 188.473 302.926 189.08C304.026 190.36 303.11 196.211 302.926 199.136C302.743 202.061 304.943 207.912 304.943 207.912C302.193 209.558 301.643 228.938 301.643 228.938C301.643 228.938 303.66 233.692 299.442 238.994C295.225 244.296 296.875 254.352 297.425 253.986C297.975 253.621 309.16 256.729 311.361 253.986C313.561 251.244 315.945 243.748 315.945 243.748C315.945 243.748 314.844 236.069 317.228 229.121C318.996 223.972 321.163 211.901 322.168 205.989C322.528 203.843 322.589 201.657 322.347 199.494C321.885 195.176 321.174 187.182 321.427 180.845C321.511 178.779 321.453 175.495 321.313 171.645C320.84 158.444 319.41 138.61 319.41 138.61L309.472 131.897L302.912 127.465L301.305 127.71L271.374 132.321L270.211 147.043L268.994 171.894Z" fill="#444053"/>
<path opacity="0.1" d="M309.479 131.904L310.004 134.778C310.004 134.778 314.405 155.804 315.321 166.591C316.238 177.379 320.089 174.27 320.089 174.27C320.424 173.365 320.837 172.489 321.321 171.652C320.848 158.452 319.418 138.618 319.418 138.618L309.479 131.904Z" fill="black"/>
<path d="M278.041 52.1371C278.041 52.1371 298.577 68.53 294.785 65.239C292.709 63.4326 294.121 55.7316 295.823 49.1496C297.224 43.7194 298.819 39.0461 298.819 39.0461C298.819 39.0461 280.894 22.3241 282.196 35.9965C282.654 40.816 282.273 44.2423 281.587 46.663C280.329 51.0986 278.041 52.1371 278.041 52.1371Z" fill="#EFB7B9"/>
<path opacity="0.1" d="M279.75 47.7783L292.768 57.9256L296.556 53.7204C296.556 53.7204 299.798 52.3199 300.04 53.9033C300.282 55.4866 301.202 65.239 299.307 66.1532C297.411 67.0673 294.968 67.678 292.83 67.3745C290.692 67.071 288.305 64.6905 286.717 63.7763C285.129 62.8622 279.262 58.1085 279.262 58.1085L276.328 54.0276L279.75 47.7783Z" fill="black"/>
<path d="M279.75 48.144L292.768 58.2913L296.556 54.0861C296.556 54.0861 299.798 52.6856 300.04 54.2689C300.282 55.8523 301.202 65.6047 299.307 66.5188C297.411 67.433 294.968 68.0437 292.83 67.7402C290.692 67.4367 288.305 65.0562 286.717 64.142C285.129 63.2278 279.262 58.4741 279.262 58.4741L276.328 54.3933L279.75 48.144Z" fill="#A36468"/>
<path opacity="0.1" d="M268.994 171.894C268.994 171.894 269.185 174.179 269.489 177.379C273.523 177.532 281.349 178.008 286.842 179.441C289.034 179.982 291.28 180.275 293.538 180.315C293.81 177.206 293.818 174.079 293.564 170.969C293.564 170.969 295.841 175.613 298.162 180.205C300.148 180.072 302.123 179.817 304.078 179.441L301.632 147.749C301.632 147.749 301.712 137.111 301.309 127.699L271.374 132.321L270.211 147.043L268.994 171.894Z" fill="black"/>
<path opacity="0.1" d="M291.484 57.0736C291.484 57.0736 282.592 47.3797 280.483 48.9192C278.374 50.4587 277.01 54.2104 277.01 54.2104L284.253 62.1308L291.484 57.0736Z" fill="black"/>
<path d="M291.118 56.7079C291.118 56.7079 282.225 47.0141 280.116 48.5535C278.008 50.093 276.644 53.8448 276.644 53.8448L283.886 61.7651L291.118 56.7079Z" fill="#A36468"/>
<path opacity="0.1" d="M298.511 62.9207L293.377 56.5032C293.377 56.5032 294.184 50.4367 296.061 51.2119C297.939 51.9872 298.511 55.0917 298.511 55.0917V62.9207Z" fill="black"/>
<path d="M298.878 62.4965L293.769 56.079C293.769 56.079 294.576 50.0125 296.454 50.7878C298.331 51.563 298.878 54.6675 298.878 54.6675V62.4965Z" fill="#A36468"/>
<path opacity="0.1" d="M275.349 50.9779C275.349 50.9779 285.878 62.3136 292.163 63.0742C292.731 63.1437 293.3 63.2388 293.861 63.3521C295.504 63.6739 299.083 63.3521 298.515 53.98L299.307 52.3199L304.199 55.3074L305.849 68.7128L308.783 103.086L313.121 141.36C313.121 141.36 299.798 140.08 296.069 143.434C292.339 146.787 291.301 125.15 291.301 125.15L281.096 81.2699L270.215 53.0512L275.349 50.9779Z" fill="black"/>
<path opacity="0.1" d="M270.215 54.5139L281.096 82.7326L291.301 126.613C291.301 126.613 292.343 148.246 296.069 144.896C297.286 143.799 299.53 143.2 301.998 142.889C305.033 142.562 308.09 142.493 311.137 142.684C312.354 142.75 313.121 142.823 313.121 142.823L308.779 104.548L305.845 70.1755L304.195 56.7701L299.307 53.7826L298.511 55.4427C298.511 55.6877 298.537 55.929 298.548 56.174C298.892 64.8331 295.456 65.1402 293.861 64.8258C293.296 64.7124 292.731 64.6173 292.159 64.5479C287.707 64.003 281.129 58.1633 277.67 54.8064C276.244 53.4169 275.345 52.4515 275.345 52.4515L270.215 54.5139Z" fill="black"/>
<path d="M270.215 53.4169L281.096 81.6356L291.301 125.516C291.301 125.516 292.343 147.149 296.069 143.799C297.286 142.702 299.53 142.103 301.998 141.792C305.033 141.465 308.09 141.397 311.137 141.587C312.354 141.653 313.121 141.726 313.121 141.726L308.779 103.451L305.845 69.0785L304.195 55.6731L299.307 52.6856L298.511 54.3457C298.511 54.5907 298.537 54.8321 298.548 55.0771C298.892 63.7361 295.456 64.0433 293.861 63.7288C293.296 63.6154 292.731 63.5204 292.159 63.4509C287.707 62.906 281.129 57.0663 277.67 53.7095C276.244 52.3199 275.345 51.3546 275.345 51.3546L270.215 53.4169Z" fill="#A276AE"/>
<path opacity="0.1" d="M298.511 54.3457C298.511 54.5907 298.536 54.8321 298.547 55.077L298.632 55.1356C299.923 55.9839 301.995 70.3108 301.995 70.3108L304.683 106.816L309.633 134.058C309.633 134.058 310.282 137.162 311.133 141.598C312.351 141.664 313.117 141.737 313.117 141.737L308.779 103.451L305.845 69.0785L304.195 55.6731L299.307 52.6856L298.511 54.3457Z" fill="black"/>
<path d="M295.144 51.9067C295.144 51.9067 298.078 54.2762 299.369 55.1246C300.66 55.9729 302.732 70.2998 302.732 70.2998L305.42 106.805L310.37 134.047C310.37 134.047 314.771 155.073 315.688 165.86C316.605 176.647 320.455 173.539 320.455 173.539C320.455 173.539 323.33 165.129 330.173 164.642C337.016 164.156 333.473 160.313 333.473 160.313C333.473 160.313 329.465 131.509 326.829 126.379C326.787 126.291 326.741 126.205 326.689 126.123C326.301 125.487 325.871 124.218 325.42 122.521C322.813 112.706 319.48 88.5138 319.48 88.5138L317.4 58.529C312.079 49.8809 295.577 50.1807 295.577 50.1807L295.144 51.9067Z" fill="#67647E"/>
<path opacity="0.1" d="M270.215 53.4169L281.096 81.6356L291.301 125.516C291.301 125.516 292.343 147.149 296.069 143.799C297.286 142.702 299.53 142.103 301.998 141.792C301.954 134.354 301.727 121.007 300.653 115.398C299.723 110.272 299.334 105.063 299.494 99.8569L286.167 70.9069C286.167 70.9069 276.145 58.5875 276.083 56.8249C276.061 56.1741 276.772 54.9673 277.674 53.6985C276.248 52.3089 275.349 51.3436 275.349 51.3436L270.215 53.4169Z" fill="black"/>
<path d="M303.707 178.721L301.265 147.028C301.265 147.028 301.448 123.38 299.919 115.398C298.987 110.272 298.597 105.063 298.757 99.8569L285.434 70.9069C285.434 70.9069 275.411 58.5875 275.349 56.825C275.287 55.0624 280.597 49.2008 280.597 49.2008C280.597 49.2008 268.994 50.5538 267.465 55.7316C265.935 60.9095 257.563 62.9243 257.563 62.9243C257.563 62.9243 253.529 66.581 253.592 77.0647C253.654 87.5485 266.427 95.7724 266.427 95.7724C266.427 95.7724 268.565 115.518 266.731 124.419C264.898 133.319 266.486 176.585 266.486 176.585C266.486 176.585 278.771 176.71 286.472 178.721C294.173 180.732 303.707 178.721 303.707 178.721Z" fill="#67647E"/>
<path d="M285.617 128.441L276.204 163.97C276.204 163.97 274.92 167.14 268.319 164.701C261.718 162.262 242.528 154.342 242.528 154.342C242.528 154.342 240.815 151.537 243.995 146.359L253.592 118.323L285.617 128.441Z" fill="#B07473"/>
<path d="M273.442 144.15L258.223 127.465L248.505 123.534L244.516 143.598L262.991 163.619L273.442 144.15Z" fill="#E1E7EF"/>
<path d="M257.178 149.723C257.178 149.723 261.703 152.374 262.895 152.466C264.087 152.557 268.297 160.481 266.518 160.419C264.74 160.357 260.603 158.225 261.018 159.322C261.432 160.419 264.127 163.71 264.912 163.399C265.697 163.088 266.06 165.813 262.712 164.862C259.364 163.911 254.919 163.077 254.919 163.077C254.919 163.077 252.536 161.34 252.444 160.108C252.352 158.876 250.291 152.382 250.291 152.382L257.178 149.723Z" fill="#EFB7B9"/>
<path d="M329.828 56.1119C329.828 56.1119 325.912 47.6832 323.572 44.8932C321.233 42.1031 311.027 39.1083 310.004 39.931C308.981 40.7538 315.138 45.3759 316.238 45.9682C317.338 46.5606 309.127 52.0639 308.962 52.1846C308.797 52.3053 302.545 51.6288 305.753 53.7314C308.962 55.834 318.449 57.9768 318.449 57.9768C319.088 57.8662 319.743 57.8866 320.373 58.0369C321.004 58.1872 321.597 58.4641 322.116 58.8508C323.954 60.1818 329.828 56.1119 329.828 56.1119Z" fill="#EFB7B9"/>
<path opacity="0.1" d="M248.355 150.147C248.874 151.843 249.569 153.479 250.431 155.029C251.347 154.203 260.101 151.325 260.101 151.325L259.129 149.829L257.545 147.394C257.545 147.394 249.741 145.704 248.414 147.394C247.966 147.961 248.047 149.006 248.355 150.147Z" fill="black"/>
<path d="M247.988 149.782C248.507 151.477 249.203 153.113 250.064 154.663C250.981 153.837 259.734 150.959 259.734 150.959L258.763 149.464L257.178 147.028C257.178 147.028 249.375 145.339 248.047 147.028C247.6 147.595 247.68 148.641 247.988 149.782Z" fill="#A36468"/>
<path opacity="0.1" d="M320.881 58.017C321.162 58.6446 321.493 59.2487 321.871 59.8234C323.283 62.043 325.421 64.6612 325.421 64.6612C325.421 64.6612 333.76 60.8363 333.76 60.6681C333.76 60.4999 331.229 56.5251 329.172 53.3913C328.34 52.1261 327.588 51.0071 327.111 50.3526C327.111 50.3526 323.998 56.8469 320.925 56.8908C320.121 56.9017 320.551 57.2235 320.881 58.017Z" fill="black"/>
<path d="M321.247 58.3827C321.528 59.0102 321.859 59.6143 322.237 60.1891C323.649 62.4087 325.787 65.0269 325.787 65.0269C325.787 65.0269 334.126 61.202 334.126 61.0338C334.126 60.8656 331.596 56.8907 329.539 53.757C328.706 52.4918 327.954 51.3728 327.478 50.7183C327.478 50.7183 324.364 57.2125 321.291 57.2564C320.488 57.2674 320.917 57.5892 321.247 58.3827Z" fill="#A36468"/>
<path d="M274.22 125.454L275.291 122.254L260.262 121.201L265.877 121.797L273.028 123.326L272.478 125.454H274.22Z" fill="#B07473"/>
<path opacity="0.1" d="M247.988 149.782C249.646 149.003 254.069 147.383 258.763 149.464L257.178 147.028C257.178 147.028 249.375 145.339 248.047 147.028C247.6 147.595 247.68 148.641 247.988 149.782Z" fill="black"/>
<path d="M247.112 130.025C247.148 130.555 247.181 131.085 247.214 131.612C247.306 133.224 247.368 134.822 247.409 136.365C247.592 143.51 247.295 149.405 247.295 149.405C247.295 149.405 252.979 145.993 259.03 148.856L259.639 137.294V137.093L260.259 132.036L262.268 115.701C262.268 115.701 266.056 93.0298 267.219 92.1778C268.381 91.3258 258.601 72.9802 258.601 72.9802L253.588 77.0647L250.471 98.0285V108.754C250.471 108.754 246.437 120.396 247.112 130.025Z" fill="#67647E"/>
<path opacity="0.1" d="M321.068 57.8671L322.241 60.1891C323.653 62.4087 325.791 65.0269 325.791 65.0269C325.791 65.0269 334.13 61.202 334.13 61.0338C334.13 60.8656 331.6 56.8908 329.542 53.757C328.908 53.0256 328.523 52.6234 328.523 52.6234C330.969 58.6569 321.068 57.8671 321.068 57.8671Z" fill="black"/>
<path d="M313.975 56.8249L317.4 58.5363C317.4 58.5363 321.618 64.2041 322.839 64.8148C324.06 65.4255 324.672 65.3633 324.672 65.3633L321.068 58.2328C321.068 58.2328 330.969 59.0226 328.523 52.9891C328.523 52.9891 339.587 65.0562 340.808 69.9342C340.808 69.9342 346.921 80.0486 345.454 85.0473C343.987 90.046 338.058 91.0187 333.778 89.4975C329.498 87.9763 316.359 81.2699 316.359 81.2699L313.975 56.8249Z" fill="#67647E"/>
<path opacity="0.1" d="M326.26 68.7128C326.26 68.7128 335.491 79.0137 334.757 80.4142C334.024 81.8147 326.748 70.7862 326.26 68.7128Z" fill="black"/>
<path opacity="0.2" d="M284.609 40.9842C284.609 40.9842 271.62 37.0825 264.285 51.1607C256.951 65.239 256.705 66.2153 257.072 66.8845C257.439 67.5537 271.678 63.8385 272.474 65.484C273.27 67.1295 264.406 73.8944 264.406 73.8944L298.753 99.8569L284.323 69.2723C283.352 67.1299 282.059 65.1482 280.487 63.396C278.114 60.7486 274.869 56.6933 276.017 55.4427C277.029 54.3457 278.65 51.4825 280.835 48.1879C282.438 45.7708 284.983 43.0466 284.609 40.9842Z" fill="black"/>
<path d="M284.975 40.6185C284.975 40.6185 271.986 36.7168 264.652 50.7951C257.318 64.8733 257.072 65.8497 257.439 66.5188C257.805 67.188 272.045 63.4728 272.841 65.1183C273.637 66.7638 264.773 73.5287 264.773 73.5287L298.753 99.8569L284.689 68.9067C283.719 66.7642 282.425 64.7825 280.853 63.0304C278.481 60.3829 275.235 56.3276 276.383 55.0771C277.395 53.9801 279.016 51.1169 281.202 47.8222C282.804 45.4051 285.349 42.6809 284.975 40.6185Z" fill="#67647E"/>
<path opacity="0.1" d="M284.975 40.6185C284.975 40.6185 271.986 36.7168 264.652 50.7951C257.318 64.8733 257.072 65.8497 257.439 66.5188C257.805 67.188 272.045 63.4728 272.841 65.1183C273.637 66.7638 264.773 73.5287 264.773 73.5287L298.753 99.8569L284.015 67.4184C283.444 66.1574 282.671 64.9976 281.726 63.9848C279.405 61.4909 275.085 56.4922 276.383 55.0771C277.395 53.9801 279.016 51.1169 281.202 47.8222C282.804 45.4051 285.349 42.6809 284.975 40.6185Z" fill="black"/>
<path d="M282.317 105.155C283.801 105.155 285.005 103.955 285.005 102.475C285.005 100.995 283.801 99.7947 282.317 99.7947C280.832 99.7947 279.629 100.995 279.629 102.475C279.629 103.955 280.832 105.155 282.317 105.155Z" fill="#444053"/>
<path d="M282.317 121.793C283.801 121.793 285.005 120.593 285.005 119.113C285.005 117.633 283.801 116.433 282.317 116.433C280.832 116.433 279.629 117.633 279.629 119.113C279.629 120.593 280.832 121.793 282.317 121.793Z" fill="#444053"/>
<path d="M247.409 136.365C248.956 136.731 256.294 136.566 259.631 137.294V137.093L260.251 132.036C256.489 131.568 248.311 130.679 247.203 131.612C245.77 132.829 245.564 135.945 247.409 136.365Z" fill="#67647E"/>
<path opacity="0.1" d="M247.409 136.731C248.956 137.097 256.294 136.932 259.631 137.66V137.459L260.251 132.401C256.489 131.933 248.311 131.045 247.203 131.977C245.77 133.195 245.564 136.31 247.409 136.731Z" fill="black"/>
<path opacity="0.1" d="M247.409 136.365C248.956 136.731 256.294 136.566 259.631 137.294V137.093L260.251 132.036C256.489 131.568 248.311 130.679 247.203 131.612C245.77 132.829 245.564 135.945 247.409 136.365Z" fill="black"/>
<path d="M249.008 135.539C249.903 135.539 250.629 134.815 250.629 133.923C250.629 133.03 249.903 132.306 249.008 132.306C248.112 132.306 247.387 133.03 247.387 133.923C247.387 134.815 248.112 135.539 249.008 135.539Z" fill="#444053"/>
<path opacity="0.1" d="M279.629 140.384L272.782 163.666C272.782 163.666 270.948 164.518 270.948 162.997C270.948 161.476 279.629 140.384 279.629 140.384Z" fill="white"/>
<path opacity="0.1" d="M282.254 45.5184C282.687 45.8644 283.138 46.1855 283.607 46.4802C285.936 47.9428 288.008 49.9321 290.978 49.9321C292.626 49.9345 294.263 49.6664 295.823 49.1386C297.224 43.7084 298.819 39.0351 298.819 39.0351C298.819 39.0351 280.894 22.3131 282.196 35.9855C282.654 40.805 282.94 43.0977 282.254 45.5184Z" fill="black"/>
<path d="M275.921 34.1864C275.921 37.1559 276.804 40.0588 278.459 42.5279C280.113 44.997 282.465 46.9214 285.216 48.0578C287.968 49.1942 290.995 49.4916 293.916 48.9122C296.837 48.3329 299.52 46.9029 301.626 44.8031C303.731 42.7033 305.165 40.028 305.746 37.1155C306.327 34.203 306.029 31.1841 304.89 28.4406C303.75 25.6971 301.82 23.3522 299.344 21.7024C296.868 20.0526 293.957 19.172 290.978 19.172C288.998 19.1628 287.036 19.5449 285.205 20.2962C283.374 21.0475 281.711 22.1531 280.311 23.5491C278.911 24.9451 277.802 26.604 277.048 28.4298C276.295 30.2555 275.912 32.2121 275.921 34.1864Z" fill="#EFB7B9"/>
<path d="M299.512 46.7545C299.65 47.0979 299.898 47.3869 300.216 47.5772L302.607 49.0399L307.077 51.7495L314.151 56.0351C314.317 56.1351 314.486 56.2265 314.657 56.3094C315.487 56.7295 316.401 56.9545 317.331 56.9671C318.261 56.9798 319.182 56.7798 320.022 56.3825C320.657 56.0978 321.215 55.6669 321.651 55.1253C322.086 54.5837 322.386 53.9468 322.527 53.267C322.715 52.3206 322.636 51.3407 322.298 50.4366C321.96 49.5326 321.376 48.7401 320.613 48.1476C320.575 48.115 320.529 48.0912 320.481 48.0782C318.975 47.6569 317.559 46.9668 316.3 46.0414L311.848 42.9698L307.873 39.346L305.863 37.9601C305.569 37.7565 305.222 37.6415 304.864 37.6285C304.506 37.6155 304.151 37.7052 303.843 37.887C301.782 39.0754 297.678 42.1324 299.512 46.7545Z" fill="#E1E7EF"/>
<path d="M302.607 49.0179L307.077 51.7275C308.009 47.9831 310.378 45.3393 312.435 43.3427L307.873 39.3204C304.404 41.0354 303.025 46.7544 302.607 49.0179Z" fill="#A36468"/>
<path opacity="0.1" d="M314.646 56.2874C315.476 56.7075 316.39 56.9325 317.32 56.9452C318.251 56.9579 319.171 56.7579 320.012 56.3606C320.646 56.0758 321.204 55.645 321.64 55.1034C322.075 54.5618 322.376 53.9249 322.516 53.2451C322.704 52.2987 322.625 51.3187 322.287 50.4147C321.949 49.5107 321.366 48.7182 320.602 48.1257C319.492 48.5943 318.464 49.2375 317.558 50.0308C316.294 51.122 315.379 52.5585 314.925 54.1629C314.746 54.8571 314.652 55.5706 314.646 56.2874Z" fill="black"/>
<path opacity="0.1" d="M275.921 34.1864C275.918 36.3731 276.396 38.5338 277.322 40.5161C278.23 41.418 278.922 42.5131 279.346 43.7194C280.366 44.9554 280.765 45.6538 282.126 46.5094C282.672 45.9353 283.905 45.588 284.128 44.8457C284.697 42.9332 284.374 40.8891 284.345 38.8962C284.345 38.0113 284.469 36.9655 285.25 36.5413C285.899 36.1756 286.717 36.4389 287.355 36.7973C287.993 37.1556 288.628 37.62 289.361 37.7041C290.461 37.8285 291.466 37.0569 292.082 36.15C292.698 35.2432 293.054 34.1827 293.637 33.2539C294.407 32.029 295.544 31.0892 296.663 30.175C297.942 29.1219 299.186 27.9554 300.55 27.012C301.364 26.4452 302.339 26.1819 303.142 25.6115L303.271 25.5164C301.425 22.9148 298.797 20.9663 295.767 19.9528C292.737 18.9394 289.462 18.9135 286.417 19.879C283.371 20.8445 280.712 22.7513 278.825 25.3234C276.939 27.8956 275.921 30.9996 275.921 34.1864Z" fill="black"/>
<path d="M305.588 17.5887C305.269 15.4824 303.52 13.5042 301.386 13.4676C299.622 13.4383 298.118 14.6304 296.556 15.4459C294.956 16.268 293.194 16.7271 291.395 16.7903C289.597 16.8535 287.806 16.5193 286.152 15.8115C285.195 15.391 284.22 14.8315 283.175 14.9193C282.129 15.0071 281.297 15.6872 280.571 16.382C278.857 18.0756 277.513 20.1051 276.625 22.3424C276.365 23.0006 276.126 23.699 275.62 24.1963C275.231 24.5146 274.811 24.7927 274.366 25.0264C273.599 25.5339 272.942 26.189 272.433 26.9532C271.923 27.7173 271.572 28.5752 271.399 29.4766C271.069 31.2893 271.256 33.1582 271.938 34.8702C272.352 36.0442 273.025 37.1103 273.908 37.9894C274.575 38.6147 275.375 39.0864 276.075 39.6678C277.216 40.6358 278.085 41.8819 278.599 43.2847C279.113 44.6874 279.255 46.199 279.009 47.6723C280.96 48.1184 282.83 46.3778 283.409 44.4654C283.989 42.5529 283.655 40.5125 283.626 38.5159C283.626 37.631 283.75 36.5889 284.531 36.1647C285.181 35.799 285.998 36.0623 286.636 36.4206C287.275 36.779 287.905 37.2397 288.642 37.3275C289.743 37.4518 290.747 36.6803 291.363 35.7734C291.979 34.8666 292.332 33.8061 292.918 32.8773C293.685 31.6523 294.825 30.7126 295.944 29.7984C297.224 28.7453 298.467 27.5788 299.827 26.6353C300.645 26.0686 301.62 25.8053 302.424 25.2348C304.837 23.5125 305.588 20.3531 305.588 17.5887Z" fill="#585268"/>
<path opacity="0.1" d="M293.931 42.6918C293.931 42.6918 294.136 42.7394 294.492 42.8381C294.321 42.7402 294.127 42.6897 293.931 42.6918Z" fill="black"/>
<g opacity="0.1">
<path opacity="0.1" d="M282.661 43.2842C283.23 41.3718 282.907 39.3277 282.878 37.3348C282.878 36.4499 283.002 35.4041 283.783 34.9799C284.433 34.6142 285.25 34.8775 285.888 35.2359C286.526 35.5942 287.157 36.0586 287.894 36.1427C288.994 36.2671 289.999 35.4991 290.615 34.5886C291.231 33.6781 291.584 32.6213 292.17 31.6925C292.937 30.4675 294.077 29.5278 295.196 28.6136C296.475 27.5641 297.719 26.394 299.079 25.4506C299.897 24.8838 300.872 24.6205 301.676 24.0501C304.103 22.3168 304.855 19.1574 304.855 16.3966C304.773 15.8672 304.609 15.3539 304.367 14.8754C305.014 15.6187 305.437 16.5287 305.588 17.5009C305.588 20.2617 304.855 23.4211 302.409 25.1544C301.606 25.7248 300.63 25.9881 299.813 26.5549C298.452 27.4983 297.209 28.6685 295.929 29.7179C294.811 30.6321 293.67 31.5719 292.904 32.7969C292.317 33.7257 291.969 34.7861 291.349 35.693C290.729 36.5998 289.721 37.3714 288.628 37.247C287.894 37.1629 287.271 36.6949 286.622 36.3402C285.973 35.9855 285.155 35.7332 284.517 36.0842C283.736 36.5084 283.596 37.5469 283.611 38.4391C283.64 40.432 283.978 42.4615 283.395 44.3886C282.812 46.3156 280.952 48.0452 278.994 47.5918C279.056 47.2486 279.094 46.9017 279.108 46.5533C280.74 46.4144 282.174 44.9261 282.661 43.2842Z" fill="black"/>
<path opacity="0.1" d="M273.174 36.8046C273.842 37.4299 274.641 37.9016 275.342 38.483C276.113 39.1309 276.76 39.9126 277.252 40.7904C276.903 40.3475 276.508 39.9419 276.075 39.58C275.371 38.9986 274.575 38.5269 273.908 37.9016C273.375 37.3911 272.925 36.8015 272.573 36.1537C272.759 36.3836 272.96 36.601 273.174 36.8046Z" fill="black"/>
</g>
<path opacity="0.1" d="M293.432 167.334C293.7 168.127 294.081 168.902 294.132 169.74C294.22 171.162 293.347 172.49 293.285 173.916C293.212 175.576 294.224 177.064 295.192 178.414C294.044 178.414 292.79 178.019 292.207 177.035C292.007 176.656 291.863 176.251 291.778 175.832C290.74 171.703 289.732 167.187 291.536 163.333C291.812 162.667 292.217 162.06 292.728 161.549C293.032 163.494 292.775 165.407 293.432 167.334Z" fill="black"/>
<path opacity="0.1" d="M322.116 138.197L325.164 134.098C325.897 133.107 326.656 132.076 326.92 130.873C327.206 129.553 326.873 128.185 326.829 126.851C326.829 126.701 326.829 126.547 326.829 126.393C326.788 126.305 326.741 126.22 326.689 126.137C326.301 125.501 325.872 124.232 325.421 122.536C324.976 122.976 324.631 123.506 324.408 124.09C322.989 127.542 324.302 131.593 323.129 135.133C322.791 136.15 322.241 137.122 322.116 138.197Z" fill="black"/>
<path opacity="0.1" d="M314.357 262.283C312.851 263.359 311.132 264.102 309.314 264.46C307.497 264.819 305.624 264.786 303.821 264.364" fill="black"/>
<path opacity="0.1" d="M289.108 262.887C288.337 263.607 287.426 264.162 286.432 264.517C285.437 264.872 284.38 265.02 283.326 264.951C282.272 264.883 281.243 264.599 280.303 264.118C279.363 263.637 278.532 262.969 277.861 262.155" fill="black"/>
<path opacity="0.1" d="M305.2 207.762C306.662 208.098 308.194 207.953 309.567 207.348C310.939 206.743 312.078 205.71 312.813 204.405" fill="black"/>
<path opacity="0.1" d="M287.817 217.003C285.494 217.172 283.182 216.54 281.271 215.211L287.817 217.003Z" fill="black"/>
<path opacity="0.1" d="M299.681 239.096C301.635 239.89 303.377 241.122 305.28 242.022C307.184 242.921 309.388 243.514 311.405 242.885" fill="black"/>
<path d="M194.118 244.519C211.357 244.519 225.333 240.5 225.333 235.542C225.333 230.584 211.357 226.565 194.118 226.565C176.878 226.565 162.903 230.584 162.903 235.542C162.903 240.5 176.878 244.519 194.118 244.519Z" fill="#5F5D7E"/>
<path opacity="0.1" d="M194.118 234.445C197.567 234.445 200.363 233.641 200.363 232.65C200.363 231.658 197.567 230.854 194.118 230.854C190.669 230.854 187.873 231.658 187.873 232.65C187.873 233.641 190.669 234.445 194.118 234.445Z" fill="black"/>
<path d="M197.062 185.295H190.645V232.65H197.062V185.295Z" fill="#5F5D7E"/>
<path opacity="0.1" d="M197.062 187.639V193.124C195.779 192.729 192.849 191.066 190.645 189.757V185.295H191.983L197.062 187.639Z" fill="black"/>
<path d="M181.943 164.679C181.943 164.679 203.131 159.242 208.405 155.172C213.678 151.102 234.387 170.255 231.651 177.477C228.915 184.699 218.955 189.939 218.955 189.939C218.955 189.939 191.408 194.408 186.721 185.087C182.034 175.766 181.943 164.679 181.943 164.679Z" fill="#474157"/>
<path opacity="0.1" d="M181.943 164.679C181.943 164.679 203.131 159.242 208.405 155.172C213.678 151.102 234.387 170.255 231.651 177.477C228.915 184.699 218.955 189.939 218.955 189.939C218.955 189.939 191.408 194.408 186.721 185.087C182.034 175.766 181.943 164.679 181.943 164.679Z" fill="black"/>
<path d="M180.109 162.485C180.109 162.485 201.298 157.048 206.571 152.978C211.845 148.908 232.553 168.061 229.818 175.283C227.082 182.505 217.122 187.745 217.122 187.745C217.122 187.745 189.574 192.214 184.887 182.893C180.201 173.572 180.109 162.485 180.109 162.485Z" fill="#474157"/>
<path opacity="0.1" d="M223.66 125.22C223.579 125.22 223.503 125.201 223.426 125.187C223.505 125.178 223.586 125.19 223.66 125.22Z" fill="black"/>
<path d="M160.886 146.293C158.77 145.778 152.935 145.302 150.159 154.587C149.513 156.743 148.69 158.843 147.699 160.865C145.033 166.317 141.596 177.525 156.724 179.993L193.028 188.221C193.028 188.221 212.464 190.598 213.748 189.683C215.031 188.769 214.848 186.758 214.848 186.758C214.848 186.758 193.395 186.758 189.178 180.176C184.961 173.594 184.777 164.635 184.777 164.635C184.777 164.635 185.305 150.802 163.141 146.783C162.393 146.648 161.638 146.476 160.886 146.293Z" fill="#474157"/>
<path opacity="0.1" d="M160.886 146.355C158.77 145.84 152.935 145.364 150.159 154.649C149.512 156.806 148.689 158.907 147.699 160.931C145.033 166.379 141.596 177.591 156.724 180.059L193.028 188.287C193.028 188.287 212.464 190.663 213.748 189.749C215.031 188.835 214.848 186.824 214.848 186.824C214.848 186.824 193.395 186.824 189.178 180.242C184.961 173.66 184.777 164.701 184.777 164.701C184.777 164.701 185.305 150.868 163.141 146.849C162.393 146.71 161.638 146.538 160.886 146.355Z" fill="black"/>
<path d="M236.991 136.833C236.78 135.495 236.09 134.278 235.048 133.408C234.006 132.539 232.683 132.076 231.325 132.105C226.664 132.193 213.356 132.756 205.244 136.332C203.462 137.119 201.676 137.883 199.842 138.526C198.185 139.115 196.208 140.055 195.229 141.404C194.25 142.753 171.209 160.419 204.397 177.423C204.397 177.423 222.183 182.472 229.15 170.625C229.15 170.625 234.101 157.896 233.734 153.49C233.367 149.083 237.035 137.199 237.035 137.199C237.035 137.199 237.027 137.075 236.991 136.833Z" fill="#474157"/>
<path opacity="0.1" d="M236.99 140.037C236.572 137.477 234.13 135.627 231.325 135.674C226.103 135.762 210.029 136.405 202.563 140.892C202.563 140.892 196.879 144.267 195.229 144.267C193.579 144.267 171.209 161.819 204.397 177.518C204.397 177.518 222.182 182.176 229.15 171.239C229.15 171.239 234.101 159.49 233.734 155.424C233.367 151.358 237.034 140.384 237.034 140.384C237.034 140.384 237.027 140.256 236.99 140.037Z" fill="black"/>
<path d="M219.249 177.434H213.381V189.892H219.249V177.434Z" fill="#5F5D7E"/>
<defs>
<linearGradient id="paint0_linear" x1="293.875" y1="275.989" x2="293.875" y2="12.3194" gradientUnits="userSpaceOnUse">
<stop stop-color="#808080" stop-opacity="0.25"/>
<stop offset="0.54" stop-color="#808080" stop-opacity="0.12"/>
<stop offset="1" stop-color="#808080" stop-opacity="0.1"/>
</linearGradient>
</defs>
</svg>
