<svg width="350" height="350" viewBox="0 0 350 350" fill="none" xmlns="http://www.w3.org/2000/svg">
<circle cx="175" cy="175" r="119.629" fill="#A276AE" fill-opacity="0.15"/>
<g clip-path="url(#clip0)">
<path d="M244.425 275.755H243.606V186.127C243.607 185.761 243.526 185.401 243.369 185.071C243.213 184.741 242.984 184.451 242.701 184.221L243.218 183.586C243.596 183.892 243.9 184.28 244.109 184.719C244.318 185.159 244.426 185.64 244.425 186.127V275.755Z" fill="#3F3D56"/>
<path d="M161.055 45.7454C161.267 46.2289 161.424 46.7343 161.526 47.2525C161.296 46.4621 161.116 45.9256 161.055 45.7454Z" fill="#3F3D56"/>
<path d="M168.314 70.785C168.314 70.785 168.314 71.3501 167.705 73.3897L168.314 70.785Z" fill="#3F3D56"/>
<path d="M243.031 156.098C226.937 164.494 205.884 171.743 199.578 173.844C204.386 172.591 218.381 170.903 240.065 184.443C267.309 201.451 296.441 190.111 296.441 190.111C296.441 190.111 289.967 202.532 276.21 203.339C262.452 204.15 226.577 181.474 214.44 187.953C202.299 194.432 196.636 186.331 191.778 202.532C186.925 218.73 178.025 263.002 188.275 287.841L198.522 312.676H140.259C140.259 312.676 161.301 256.523 149.7 221.97C143.206 202.618 134.088 188.604 130.688 181.482C128.982 177.915 128.712 176.08 130.921 176.17C132.177 176.223 134.236 176.899 137.293 178.234C137.293 178.234 123.265 164.465 118.682 164.465C114.095 164.465 92.5132 162.307 85.5035 155.017C85.5035 155.017 75.523 147.997 57.7184 165.276C39.9139 182.555 44.231 182.555 28.317 181.203C12.6526 179.872 0.380561 172.267 0 172.029C0.454218 172.214 18.7498 179.532 29.9334 175.805C41.2643 172.025 50.9747 157.716 60.9553 152.859C70.9358 147.997 76.8693 141.518 90.3567 148.538L81.4687 127.565L79.034 121.819L79.0299 121.811C79.0299 121.811 76.059 82.3962 70.3956 79.6973C64.7322 76.9943 68.2391 69.9788 57.7184 68.6273C57.7184 68.6273 70.6657 67.0055 73.0923 75.9172C75.523 84.8248 92.2472 132.881 92.2472 132.881C92.2472 132.881 102.494 153.395 113.825 148.538C125.156 143.677 109.508 116.413 109.508 116.413L90.0866 107.501C90.0866 107.501 104.654 106.961 113.555 115.332C122.455 123.699 122.995 150.696 122.995 150.696C122.995 150.696 145.383 153.936 150.78 166.087C150.78 166.087 154.287 155.287 147.543 148.808C145.857 147.186 144.085 144.369 142.379 141.056C135.911 128.339 133.573 113.917 135.693 99.806C136.695 92.9011 137.313 86.1477 136.212 84.5545C133.786 81.0447 123.535 59.4494 122.725 53.7771C121.919 48.109 123.535 36.2322 123.535 36.2322C123.535 36.2322 123.805 50.8079 127.042 55.399C130.279 59.99 139.449 82.6665 139.449 82.6665C139.449 82.6665 139.449 111.282 147.003 125.321C154.557 139.36 169.121 155.017 168.314 165.276V171.214C168.314 171.214 184.499 155.828 183.418 150.696C182.338 145.569 180.992 133.417 170.741 126.132C160.49 118.842 153.747 107.231 161.031 90.493C165.127 81.0775 166.919 76.0196 167.705 73.3944L163.457 91.5742C163.457 91.5742 160.76 110.2 168.314 116.679C168.335 116.696 168.351 116.712 168.372 116.728C175.913 123.216 185.845 135.039 185.845 135.039L185.816 134.519L183.688 96.1652L184.155 97.189L187.518 104.569L190.702 111.552C190.702 111.552 205.806 92.1148 223.61 85.6357C241.411 79.1567 252.472 56.4802 252.472 56.4802L267.579 44.5992L255.168 59.4494C255.168 59.4494 251.391 76.9943 230.084 89.4158C208.773 101.833 195.019 120.189 194.209 131.529C193.399 142.87 192.589 152.859 192.589 152.859C192.589 152.859 232.511 151.507 241.411 133.958C250.315 116.413 257.599 115.602 257.599 115.602L252.472 130.719L246.808 143.677C246.808 143.677 270.006 144.217 282.143 157.986C294.284 171.755 324.492 175.805 324.492 175.805L307.502 180.392C307.502 180.392 291.313 174.995 275.94 165.006C260.566 155.017 262.182 146.109 243.031 156.098Z" fill="#3F3D56"/>
<path opacity="0.1" d="M251.633 119.263C249.926 126.823 247.917 134.125 245.094 139.691C236.193 157.24 196.271 158.592 196.271 158.592C196.271 158.592 196.46 156.274 196.746 152.616C206.882 151.781 234.589 148.214 241.82 133.958C242.483 132.655 243.097 131.255 243.678 129.78L251.633 119.263Z" fill="black"/>
<path opacity="0.1" d="M189.528 140.772C189.528 140.772 179.547 128.891 171.997 122.412C170.34 120.995 169.178 118.989 168.372 116.728C168.306 116.548 168.245 116.363 168.184 116.179C168.36 116.351 168.536 116.519 168.724 116.679C175.332 122.351 183.807 132.164 185.816 134.519C186.099 134.854 186.254 135.039 186.254 135.039L184.155 97.1885L187.519 104.568L189.528 140.772Z" fill="black"/>
<path opacity="0.1" d="M195.305 106.685C195.246 113.332 194.384 117.285 194.384 117.285C194.384 117.285 209.483 97.8556 227.281 91.3723C228.333 90.7063 229.4 90.0505 230.493 89.414C251.802 76.9955 255.579 59.4477 255.579 59.4477L267.987 44.5995L252.881 56.4781C252.881 56.4781 241.822 79.1553 224.019 85.6345C211.884 90.051 201.004 100.487 195.305 106.685Z" fill="black"/>
<path opacity="0.1" d="M171.996 171.008V176.948C171.996 176.948 188.18 161.559 187.101 156.43C186.276 152.507 185.288 144.481 180.286 137.661C182.541 142.815 183.227 147.842 183.827 150.696C184.601 154.375 176.498 163.328 171.851 168.099C172.014 169.06 172.063 170.036 171.996 171.008Z" fill="black"/>
<path opacity="0.1" d="M150.285 130.25C150.413 130.523 150.546 130.793 150.686 131.053C154.822 138.741 161.058 146.914 165.724 154.421C161.953 146.987 155.391 138.486 150.285 130.25Z" fill="black"/>
<path opacity="0.1" d="M240.473 184.442C231.6 178.903 224.015 175.913 217.82 174.399C211.321 176.847 205.972 178.673 203.28 179.569C208.107 178.318 222.092 176.657 243.747 190.176C260.737 200.783 278.461 200.365 289.396 198.548C292.42 196.264 294.955 193.395 296.849 190.112C296.849 190.112 267.717 201.45 240.473 184.442Z" fill="black"/>
<path opacity="0.1" d="M163.436 118.756C161.261 113.422 160.902 107.075 163.401 99.6375C163.37 96.942 163.525 94.2476 163.866 91.5736L168.114 73.3893C167.331 76.0117 165.539 81.0706 161.439 90.4938C156.248 102.423 158.185 111.745 163.436 118.756Z" fill="black"/>
<path opacity="0.1" d="M282.553 157.986C274.135 148.437 260.4 145.252 252.77 144.196L250.49 149.411C250.49 149.411 273.688 149.951 285.827 163.719C292.558 171.354 304.845 176 314.458 178.624L324.903 175.803C324.903 175.803 294.691 171.754 282.553 157.986Z" fill="black"/>
<path opacity="0.1" d="M117.507 154.27C128.837 149.411 113.192 122.144 113.192 122.144L112.764 121.948C116.664 130.184 122.321 145.068 114.234 148.537C106.667 151.782 99.5818 143.707 95.7103 137.986C95.8509 138.391 95.9281 138.612 95.9281 138.612C95.9281 138.612 106.178 159.13 117.507 154.27Z" fill="black"/>
<path opacity="0.1" d="M154.462 171.818C154.462 171.818 157.876 161.287 151.463 154.784C153.036 160.386 151.189 166.084 151.189 166.084C147.015 156.687 132.675 152.621 126.394 151.261C126.638 154.39 126.679 156.43 126.679 156.43C126.679 156.43 149.067 159.67 154.462 171.818Z" fill="black"/>
<path opacity="0.1" d="M168.114 73.3893C168.722 71.3537 168.722 70.7862 168.722 70.7862L168.114 73.3893Z" fill="black"/>
<path opacity="0.1" d="M33.4542 181.589C33.5086 181.571 33.5638 181.555 33.6179 181.537C44.947 177.757 54.6578 163.449 64.6383 158.59C74.6187 153.73 80.553 147.251 94.0401 154.27C94.0401 154.27 91.6806 144.604 87.1082 138.253C88.6227 141.569 89.8467 145.009 90.7665 148.537C77.2794 141.518 71.345 147.997 61.3646 152.856C51.3842 157.716 41.6734 172.024 30.3442 175.803C19.015 179.583 0.402832 172.024 0.402832 172.024C0.402832 172.024 12.811 179.853 28.7258 181.203C30.5463 181.357 32.0997 181.493 33.4542 181.589Z" fill="black"/>
<path opacity="0.1" d="M82.7127 127.544C82.7127 127.544 82.2708 127.552 81.4687 127.565L79.0339 121.819C79.2999 121.815 79.439 121.81 79.439 121.81C79.439 121.81 77.5649 96.951 73.9557 85.3649C74.0007 85.3854 74.0375 85.41 74.0785 85.4304C79.7419 88.1294 82.7127 127.544 82.7127 127.544Z" fill="black"/>
<path opacity="0.1" d="M145.913 312.676C150.855 297.513 162.741 255.581 153.383 227.701C149.342 215.661 145.596 207.983 142.429 203.085C144.798 207.722 147.387 213.855 150.11 221.968C161.709 256.523 140.669 312.676 140.669 312.676H145.913Z" fill="black"/>
<path opacity="0.1" d="M140.975 183.967C137.721 182.535 134.237 181.693 130.688 181.481C128.982 177.914 128.712 176.079 130.921 176.169C131.535 176.28 132.153 176.411 132.767 176.563C137.104 180.167 140.975 183.967 140.975 183.967Z" fill="black"/>
<path opacity="0.1" d="M67.9507 77.0744C68.2584 77.5929 68.6312 78.0699 69.06 78.4937C68.745 77.9801 68.3729 77.504 67.9507 77.0744Z" fill="black"/>
<path opacity="0.1" d="M117.238 121.064C117.655 121.459 118.045 121.881 118.407 122.326C117.225 119.483 115.766 117.025 113.964 115.331C105.063 106.962 90.4965 107.502 90.4965 107.502L108.764 115.881C111.894 117.05 114.771 118.81 117.238 121.064Z" fill="black"/>
<path opacity="0.1" d="M136.622 84.5545C137.723 86.1459 137.105 92.8994 136.1 99.8064C133.981 113.917 136.32 128.338 142.789 141.054C143.648 142.755 144.608 144.404 145.663 145.992C139.498 133.464 137.304 119.35 139.373 105.54C140.378 98.6331 140.997 91.8796 139.896 90.2882C137.468 86.7786 127.218 65.1813 126.409 59.5119C126.166 57.3125 126.11 55.0965 126.24 52.8876C124.145 46.9375 123.944 36.2305 123.944 36.2305C123.944 36.2305 122.326 48.109 123.135 53.7783C123.944 59.4475 134.195 81.045 136.622 84.5545Z" fill="black"/>
<path opacity="0.1" d="M161.929 47.2325C161.82 46.6989 161.656 46.1783 161.439 45.6792C161.439 45.6792 161.646 46.2619 161.929 47.2325Z" fill="black"/>
<path opacity="0.1" d="M66.6543 74.4218C69.0316 74.713 71.7661 75.443 73.852 77.136C73.716 76.6754 73.5973 76.2625 73.5028 75.9156C71.0751 67.0067 58.1274 68.6265 58.1274 68.6265C63.9787 69.3772 65.49 71.882 66.6543 74.4218Z" fill="black"/>
<path d="M321.028 298.806C317.005 304.98 318.107 312.833 318.107 312.833C318.107 312.833 325.732 310.676 329.755 304.501C333.778 298.327 332.675 290.474 332.675 290.474C332.675 290.474 325.051 292.632 321.028 298.806Z" fill="#3F3D56"/>
<path d="M324.049 299.898C323.731 307.262 318.269 313.007 318.269 313.007C318.269 313.007 313.323 306.812 313.641 299.447C313.959 292.083 319.421 286.338 319.421 286.338C319.421 286.338 324.367 292.533 324.049 299.898Z" fill="#A276AE"/>
<path d="M253.194 253.294C253.194 253.294 257.823 248.434 259.717 249.412C261.612 250.389 254.27 254.736 254.27 254.736L253.194 253.294Z" fill="#FFB9B9"/>
<path opacity="0.1" d="M253.194 253.294C253.194 253.294 257.823 248.434 259.717 249.412C261.612 250.389 254.27 254.736 254.27 254.736L253.194 253.294Z" fill="black"/>
<path d="M239.071 242.686C239.071 242.686 237.369 245.739 237.815 249.029C238.26 252.32 242.332 262.879 243.716 262.692C245.101 262.504 255.355 254.941 255.355 254.941L253.4 252.208L245.908 256.751C245.908 256.751 244.767 240.503 239.071 242.686Z" fill="#D0CDE1"/>
<path d="M266.848 250.117L255.17 256.537C255.102 256.582 255.026 256.612 254.945 256.624C254.865 256.636 254.783 256.631 254.705 256.608C254.627 256.585 254.555 256.545 254.494 256.491C254.433 256.437 254.385 256.371 254.352 256.296L251.491 250.311C251.437 250.141 251.446 249.956 251.516 249.791C251.586 249.627 251.713 249.493 251.874 249.414L261.57 244.412C261.689 244.34 261.831 244.315 261.968 244.341C262.105 244.367 262.227 244.443 262.312 244.554L267.155 249.121C267.203 249.206 267.233 249.3 267.243 249.397C267.253 249.494 267.244 249.592 267.215 249.685C267.187 249.778 267.139 249.864 267.076 249.939C267.013 250.013 266.936 250.074 266.848 250.117Z" fill="#2F2E41"/>
<path d="M266.069 249.233L255.121 255.496L252.207 250.241L261.599 245.129L266.069 249.233Z" fill="#A276AE"/>
<path d="M256.883 247.423C256.94 247.355 256.939 247.26 256.881 247.211C256.823 247.162 256.729 247.178 256.672 247.247C256.615 247.315 256.616 247.41 256.675 247.459C256.733 247.507 256.826 247.491 256.883 247.423Z" fill="#F2F2F2"/>
<path d="M260.911 252.77C260.949 252.725 260.948 252.662 260.91 252.63C260.871 252.598 260.81 252.608 260.772 252.653C260.734 252.699 260.735 252.761 260.773 252.794C260.812 252.826 260.874 252.815 260.911 252.77Z" fill="#F2F2F2"/>
<path opacity="0.1" d="M239.071 242.686C239.071 242.686 237.369 245.739 237.815 249.029C238.26 252.32 242.332 262.879 243.716 262.692C245.101 262.504 255.355 254.941 255.355 254.941L253.4 252.208L245.908 256.751C245.908 256.751 244.767 240.503 239.071 242.686Z" fill="black"/>
<path d="M250.064 254.223C250.064 254.223 255.303 250.028 257.049 251.252C258.796 252.475 250.938 255.796 250.938 255.796L250.064 254.223Z" fill="#FFB9B9"/>
<path d="M243.08 237.445C245.877 237.445 248.144 235.175 248.144 232.376C248.144 229.577 245.877 227.308 243.08 227.308C240.283 227.308 238.016 229.577 238.016 232.376C238.016 235.175 240.283 237.445 243.08 237.445Z" fill="#FFB9B9"/>
<path d="M260.542 267.68C260.542 267.68 265.956 268.379 265.781 271.7C265.606 275.021 261.59 288.828 261.59 288.828L261.241 294.245C261.241 294.245 261.59 303.334 260.542 303.159C259.495 302.984 257.05 296.692 257.05 296.692C257.05 296.692 254.081 294.77 255.478 293.022C256.875 291.274 257.923 291.449 257.574 289.527C257.224 287.604 257.399 279.565 258.447 277.118C259.495 274.671 260.105 273.322 260.105 273.322L256.701 273.098L260.542 267.68Z" fill="#FFB9B9"/>
<path opacity="0.1" d="M260.542 267.68C260.542 267.68 265.956 268.379 265.781 271.7C265.606 275.021 261.59 288.828 261.59 288.828L261.241 294.245C261.241 294.245 261.59 303.334 260.542 303.159C259.495 302.984 257.05 296.692 257.05 296.692C257.05 296.692 254.081 294.77 255.478 293.022C256.875 291.274 257.923 291.449 257.574 289.527C257.224 287.604 257.399 279.565 258.447 277.118C259.495 274.671 260.105 273.322 260.105 273.322L256.701 273.098L260.542 267.68Z" fill="black"/>
<path d="M260.892 268.554C260.892 268.554 266.13 269.778 266.654 273.273C267.178 276.768 269.797 287.08 269.797 287.08L272.591 293.546C272.591 293.546 276.957 301.411 275.036 301.236C273.115 301.062 270.496 297.217 269.623 297.217C268.75 297.217 266.13 296.168 266.305 295.469C266.48 294.77 267.702 292.673 267.702 292.673L263.477 285.307C262.661 283.885 262.045 282.358 261.645 280.768C261.211 279.043 260.717 276.93 260.717 276.244C260.717 275.021 257.224 274.496 257.224 274.496L260.892 268.554Z" fill="#FFB9B9"/>
<path d="M243.778 257.369L246.223 264.36C246.223 264.36 250.065 265.408 252.859 266.282C255.653 267.156 260.892 265.932 261.415 268.03C261.939 270.127 260.368 273.797 258.796 274.671C257.224 275.545 256.351 276.419 251.287 275.021C246.223 273.622 234.174 273.273 234.174 273.273C233.006 273.974 231.69 274.393 230.332 274.496C228.062 274.671 227.538 274.846 226.839 274.322C226.141 273.797 227.189 273.797 227.538 272.399C227.887 271.001 228.062 271.525 229.633 269.952C231.205 268.379 232.428 263.66 233.301 262.088C234.174 260.515 234.698 257.369 234.698 257.369H243.778Z" fill="#2F2E41"/>
<path d="M243.429 236.571C242.794 237.035 242.275 237.639 241.912 238.336C241.549 239.033 241.351 239.805 241.333 240.591C241.333 243.212 236.094 237.794 236.094 237.794C236.094 237.794 238.888 234.299 238.888 233.25C238.888 232.202 243.429 236.571 243.429 236.571Z" fill="#FFB9B9"/>
<path d="M236.793 235.522C236.793 235.522 239.936 236.746 240.635 238.493C241.333 240.241 243.953 243.911 243.953 243.911C243.953 243.911 247.62 247.756 246.397 251.951C245.175 256.145 244.127 257.194 244.127 257.893C244.127 258.592 242.381 259.815 240.984 259.641C239.587 259.466 234.348 258.767 233.999 258.068C233.65 257.369 231.554 247.407 232.951 243.737C234.085 240.932 235.367 238.19 236.793 235.522Z" fill="#D0CDE1"/>
<path d="M244.548 232.607C245.682 232.876 246.794 232.154 247.722 231.437C248.25 231.03 248.83 230.45 248.668 229.795C248.525 229.214 247.841 228.885 247.742 228.295C247.673 227.885 247.912 227.485 247.932 227.07C247.914 226.753 247.811 226.447 247.631 226.185C247.452 225.923 247.204 225.716 246.915 225.585C246.363 225.288 245.737 225.164 245.169 224.898C244.303 224.491 243.583 223.758 242.658 223.523C241.395 223.202 240.108 223.885 238.808 223.974C238.022 224.027 237.226 223.861 236.448 223.99C235.706 224.14 235.036 224.536 234.547 225.114C234.057 225.691 233.776 226.417 233.748 227.174C233.738 227.73 233.849 228.351 233.518 228.792C233.387 228.944 233.237 229.079 233.073 229.195C231.918 230.13 231.393 231.692 231.334 233.197C231.304 233.938 231.459 234.818 232.116 235.133C232.468 235.254 232.84 235.305 233.211 235.285C233.397 235.278 233.583 235.316 233.752 235.396C233.92 235.477 234.066 235.597 234.177 235.747C234.477 236.275 234.028 237.055 234.42 237.516C234.714 237.863 235.287 237.748 235.63 237.453C235.973 237.158 236.187 236.733 236.513 236.418C237.146 235.804 238.085 235.693 238.952 235.6C239.209 235.598 239.46 235.516 239.668 235.365C239.826 235.199 239.928 234.989 239.961 234.763C240.076 234.242 240.077 233.703 239.966 233.182C239.911 233.02 239.904 232.846 239.946 232.681C240.003 232.563 240.092 232.464 240.202 232.394C240.74 231.99 241.682 231.401 242.381 231.512C243.156 231.636 243.766 232.421 244.548 232.607Z" fill="#2F2E41"/>
<path d="M237.492 241.814C237.492 241.814 235.396 244.61 235.396 247.931C235.396 251.252 238.015 262.262 239.412 262.262C240.809 262.262 251.986 256.145 251.986 256.145L250.414 253.174L242.381 256.67C242.381 256.67 243.429 240.416 237.492 241.814Z" fill="#D0CDE1"/>
<path d="M261.202 273.36H221.1V281.141H261.202V273.36Z" fill="#A276AE"/>
<path d="M241.151 281.551C240.283 281.55 239.451 281.204 238.838 280.59C238.224 279.976 237.879 279.143 237.878 278.274V186.127C237.878 185.507 238.053 184.9 238.384 184.376C238.715 183.853 239.187 183.434 239.746 183.168C240.305 182.902 240.928 182.8 241.542 182.874C242.157 182.948 242.738 183.195 243.218 183.586L242.701 184.221C242.341 183.927 241.905 183.742 241.444 183.687C240.983 183.631 240.516 183.708 240.097 183.907C239.678 184.107 239.324 184.421 239.076 184.814C238.828 185.207 238.696 185.662 238.696 186.127V278.274C238.697 278.926 238.956 279.551 239.416 280.011C239.876 280.472 240.5 280.731 241.151 280.732V281.551Z" fill="#3F3D56"/>
<path d="M350 312.267H20.1804V313.086H350V312.267Z" fill="#3F3D56"/>
<path d="M234.963 230.087C235.139 229.945 234.938 229.402 234.513 228.873C234.089 228.344 233.602 228.029 233.426 228.171C233.25 228.313 233.451 228.856 233.875 229.386C234.3 229.915 234.787 230.229 234.963 230.087Z" fill="#A276AE"/>
<path d="M199.903 298.806C195.88 304.98 196.982 312.833 196.982 312.833C196.982 312.833 204.607 310.676 208.63 304.501C212.653 298.327 211.55 290.474 211.55 290.474C211.55 290.474 203.926 292.632 199.903 298.806Z" fill="#3F3D56"/>
<path d="M202.925 299.898C202.607 307.262 197.145 313.007 197.145 313.007C197.145 313.007 192.198 306.812 192.516 299.447C192.834 292.083 198.296 286.338 198.296 286.338C198.296 286.338 203.243 292.533 202.925 299.898Z" fill="#A276AE"/>
<path d="M133.698 301.141C135.621 308.257 142.209 312.664 142.209 312.664C142.209 312.664 145.678 305.534 143.755 298.419C141.831 291.303 135.244 286.896 135.244 286.896C135.244 286.896 131.774 294.026 133.698 301.141Z" fill="#3F3D56"/>
<path d="M136.524 299.612C141.801 304.754 142.446 312.658 142.446 312.658C142.446 312.658 134.534 312.226 129.257 307.084C123.979 301.942 123.335 294.039 123.335 294.039C123.335 294.039 131.246 294.471 136.524 299.612Z" fill="#A276AE"/>
<path d="M119.032 106.691C118.573 114.048 113.002 119.687 113.002 119.687C113.002 119.687 108.175 113.399 108.634 106.042C109.093 98.6851 114.664 93.0459 114.664 93.0459C114.664 93.0459 119.491 99.3346 119.032 106.691Z" fill="#A276AE"/>
<path d="M60.9593 60.1828C67.1895 64.114 69.4619 71.7111 69.4619 71.7111C69.4619 71.7111 61.6332 72.9344 55.403 69.0033C49.1728 65.0721 46.9004 57.475 46.9004 57.475C46.9004 57.475 54.7291 56.2517 60.9593 60.1828Z" fill="#A276AE"/>
<path d="M47.0462 149.873C53.2764 153.805 55.5488 161.402 55.5488 161.402C55.5488 161.402 47.7201 162.625 41.4899 158.694C35.2597 154.763 32.9873 147.166 32.9873 147.166C32.9873 147.166 40.816 145.942 47.0462 149.873Z" fill="#A276AE"/>
<path d="M173.704 73.2948C171.825 80.4221 165.265 84.8698 165.265 84.8698C165.265 84.8698 161.751 77.7621 163.63 70.6348C165.509 63.5075 172.069 59.0597 172.069 59.0597C172.069 59.0597 175.582 66.1675 173.704 73.2948Z" fill="#A276AE"/>
<path d="M232.971 78.8521C230.763 85.8842 224.003 90.0215 224.003 90.0215C224.003 90.0215 220.824 82.7577 223.032 75.7257C225.24 68.6937 232 64.5564 232 64.5564C232 64.5564 235.179 71.8201 232.971 78.8521Z" fill="#A276AE"/>
<path d="M297.03 157.115C293.03 163.304 285.413 165.49 285.413 165.49C285.413 165.49 284.282 157.641 288.282 151.452C292.282 145.263 299.899 143.077 299.899 143.077C299.899 143.077 301.03 150.926 297.03 157.115Z" fill="#A276AE"/>
</g>
<defs>
<clipPath id="clip0">
<rect y="36.2305" width="350" height="276.855" fill="white"/>
</clipPath>
</defs>
</svg>
