<svg width="20" height="19" viewBox="0 0 20 19" fill="none" xmlns="http://www.w3.org/2000/svg">
<g clip-path="url(#clip0)">
<path d="M8.64611 3.05587L1.9407 14.25C1.80245 14.4895 1.7293 14.7609 1.72852 15.0374C1.72775 15.3138 1.79938 15.5857 1.93628 15.8259C2.07319 16.0661 2.2706 16.2662 2.50888 16.4064C2.74716 16.5466 3.018 16.622 3.29445 16.625H16.7053C16.9817 16.622 17.2526 16.5466 17.4908 16.4064C17.7291 16.2662 17.9265 16.0661 18.0634 15.8259C18.2003 15.5857 18.272 15.3138 18.2712 15.0374C18.2704 14.7609 18.1973 14.4895 18.059 14.25L11.3536 3.05587C11.2125 2.82321 11.0138 2.63084 10.7766 2.49734C10.5395 2.36384 10.272 2.2937 9.99986 2.2937C9.72774 2.2937 9.46021 2.36384 9.22308 2.49734C8.98596 2.63084 8.78724 2.82321 8.64611 3.05587V3.05587Z" stroke="#F2994A" stroke-width="2" stroke-linecap="round" stroke-linejoin="round"/>
<path d="M10 7.125V10.2917" stroke="#F2994A" stroke-width="2" stroke-linecap="round" stroke-linejoin="round"/>
<path d="M10 13.4584H10.0079" stroke="#F2994A" stroke-width="2" stroke-linecap="round" stroke-linejoin="round"/>
</g>
<defs>
<clipPath id="clip0">
<rect x="0.5" width="19" height="19" fill="white"/>
</clipPath>
</defs>
</svg>
