<svg width="72" height="72" viewBox="0 0 72 72" fill="none" xmlns="http://www.w3.org/2000/svg">
<path d="M60 21H12C8.68629 21 6 23.6863 6 27V57C6 60.3137 8.68629 63 12 63H60C63.3137 63 66 60.3137 66 57V27C66 23.6863 63.3137 21 60 21Z" stroke="black" stroke-width="5" stroke-linecap="round" stroke-linejoin="round"/>
<path d="M48 63V15C48 13.4087 47.3679 11.8826 46.2426 10.7574C45.1174 9.63214 43.5913 9 42 9H30C28.4087 9 26.8826 9.63214 25.7574 10.7574C24.6321 11.8826 24 13.4087 24 15V63" stroke="black" stroke-width="5" stroke-linecap="round" stroke-linejoin="round"/>
</svg>
