<svg width="94" height="24" viewBox="0 0 94 24" fill="none" xmlns="http://www.w3.org/2000/svg">
<g clip-path="url(#clip0)">
<path d="M0 12H30" stroke="#A276AE" stroke-opacity="0.5" stroke-linecap="round" stroke-linejoin="round" stroke-dasharray="5 5"/>
<path d="M53.7499 9.75H49.7319L46.037 3.28336C45.9877 3.19726 45.9166 3.12572 45.8308 3.07596C45.7449 3.0262 45.6475 2.99999 45.5483 3H43.2456C42.8719 3 42.6022 3.35754 42.7049 3.71684L44.4286 9.75H40.8124L39.2937 7.725C39.1875 7.58332 39.0205 7.5 38.8437 7.5H37.4378C37.0718 7.5 36.8032 7.84383 36.8921 8.19891L37.9999 12L36.8921 15.8011C36.8032 16.1562 37.0718 16.5 37.4378 16.5H38.8437C39.0208 16.5 39.1875 16.4167 39.2937 16.275L40.8124 14.25H44.4286L42.7049 20.2828C42.6022 20.6421 42.8719 21 43.2456 21H45.5483C45.7501 21 45.9364 20.8917 46.0366 20.7166L49.7319 14.25H53.7499C54.9927 14.25 57.1249 13.2428 57.1249 12C57.1249 10.7572 54.9927 9.75 53.7499 9.75Z" fill="#A276AE"/>
<path d="M64 12H94" stroke="#A276AE" stroke-opacity="0.5" stroke-linecap="round" stroke-linejoin="round" stroke-dasharray="5 5"/>
</g>
<defs>
<clipPath id="clip0">
<rect width="94" height="24" fill="white"/>
</clipPath>
</defs>
</svg>
