<svg width="37" height="44" viewBox="0 0 37 44" fill="none" xmlns="http://www.w3.org/2000/svg">
<path d="M0.5 44V35.8496C0.5 32.2902 0.624783 28.4486 1.93676 25.4665C2.50398 24.1772 3.31353 22.9919 4.45507 22.048C3.33063 21.1338 2.52722 19.9802 1.96101 18.7218C0.634501 15.7736 0.5 11.9528 0.5 8.41177V0H10.7857V5.17647V8.41177C10.7857 12.0894 10.9867 14.8039 11.7887 16.5863C12.1512 17.392 12.5976 17.9076 13.1504 18.2489C13.7194 18.6001 14.6089 18.8941 16.0571 18.8941H16.5871L15.6882 15.8066C15.61 15.5379 15.8154 15.2706 16.1002 15.2706H17.8546C17.9302 15.2706 18.0044 15.2902 18.0698 15.3274C18.1352 15.3646 18.1894 15.4181 18.2269 15.4825L21.0421 20.3176H24.1035C25.0504 20.3176 26.6749 21.0708 26.6749 22C26.6749 22.9292 25.0504 23.6824 24.1035 23.6824H21.0421L18.2267 28.5175C18.1503 28.6485 18.0084 28.7294 17.8546 28.7294H16.1002C15.8154 28.7294 15.61 28.4618 15.6882 28.1932L16.59 25.0958L16.1081 25.1054C14.6526 25.1344 13.753 25.449 13.1718 25.8222C12.6041 26.1868 12.1484 26.7298 11.782 27.5624C10.9758 29.3949 10.7857 32.1475 10.7857 35.8496V38.8235V44H0.5Z" fill="#815C8B"/>
<path fill-rule="evenodd" clip-rule="evenodd" d="M12.2857 5.17647V0H14.6428C26.7142 0 36.5 9.84974 36.5 22C36.5 34.1503 26.7142 44 14.6428 44H12.2857V38.8235V35.8496C12.2857 32.1024 12.4953 29.6661 13.155 28.1665C13.4268 27.5489 13.7087 27.2601 13.9823 27.0844C14.102 27.0075 14.2742 26.918 14.5207 26.8371L14.248 27.7739C13.8799 29.0381 14.8533 30.2294 16.1001 30.2294H17.8546C18.5336 30.2294 19.1731 29.8722 19.5224 29.2732L21.9045 25.1824H24.1035C24.8942 25.1824 25.7945 24.8948 26.4973 24.4869C26.8611 24.2758 27.2482 23.989 27.5604 23.613C27.8733 23.2361 28.1749 22.6872 28.1749 22C28.1749 21.3128 27.8733 20.7639 27.5604 20.387C27.2482 20.011 26.8611 19.7243 26.4973 19.5131C25.7945 19.1052 24.8942 18.8176 24.1035 18.8176H21.9045L19.5232 14.7277L19.5227 14.7268C19.3507 14.4319 19.1045 14.1903 18.8117 14.0237C18.5191 13.8572 18.189 13.7706 17.8546 13.7706H16.1001C14.8543 13.7706 13.8796 14.9606 14.248 16.2259L14.5379 17.2218C14.2526 17.1425 14.0627 17.0492 13.9384 16.9725C13.6871 16.8174 13.4207 16.5579 13.1566 15.9708C12.5065 14.526 12.2857 12.1329 12.2857 8.41177V5.17647Z" fill="#A276AE"/>
</svg>
