<svg width="27" height="33" viewBox="0 0 27 33" fill="none" xmlns="http://www.w3.org/2000/svg">
<path d="M0 33V26.8872C0 24.2176 0.0935874 21.3365 1.07757 19.0999C1.50298 18.1329 2.11014 17.2439 2.9663 16.536C2.12297 15.8503 1.52041 14.9852 1.09576 14.0414C0.100876 11.8302 0 8.96459 0 6.30883V0H7.71429V3.88235V6.30883C7.71429 9.06707 7.86505 11.1029 8.46653 12.4397C8.7384 13.044 9.07318 13.4307 9.48783 13.6866C9.91454 13.95 10.5817 14.1706 11.6679 14.1706H12.0653L11.3911 11.8549C11.3325 11.6534 11.4866 11.4529 11.7001 11.4529H13.016C13.0727 11.4529 13.1283 11.4676 13.1774 11.4955C13.2264 11.5234 13.2671 11.5636 13.2952 11.6118L15.4066 15.2382H17.7026C18.4128 15.2382 19.6312 15.8031 19.6312 16.5C19.6312 17.1969 18.4128 17.7618 17.7026 17.7618H15.4066L13.295 21.3882C13.2378 21.4863 13.1313 21.5471 13.016 21.5471H11.7001C11.4866 21.5471 11.3325 21.3464 11.3911 21.1449L12.0675 18.8218L11.706 18.829C10.6144 18.8508 9.93976 19.0867 9.50383 19.3667C9.07804 19.6401 8.73628 20.0473 8.46154 20.6718C7.85689 22.0462 7.71429 24.1106 7.71429 26.8872V29.1177V33H0Z" fill="white"/>
<path fill-rule="evenodd" clip-rule="evenodd" d="M8.83928 3.88235V0H10.6071C19.6607 0 27 7.3873 27 16.5C27 25.6127 19.6607 33 10.6071 33H8.83928V29.1177V26.8872C8.83928 24.0768 8.99645 22.2496 9.49128 21.1248C9.69506 20.6616 9.90652 20.4451 10.1117 20.3133C10.2015 20.2556 10.3307 20.1885 10.5155 20.1278L10.311 20.8304C10.0349 21.7786 10.7649 22.6721 11.7001 22.6721H13.016C13.5252 22.6721 14.0049 22.4041 14.2668 21.9549L16.0534 18.8868H17.7026C18.2957 18.8868 18.9709 18.6711 19.498 18.3652C19.7709 18.2068 20.0612 17.9918 20.2953 17.7098C20.53 17.4271 20.7562 17.0154 20.7562 16.5C20.7562 15.9846 20.53 15.573 20.2953 15.2902C20.0612 15.0082 19.7709 14.7932 19.498 14.6348C18.9709 14.3289 18.2957 14.1132 17.7026 14.1132H16.0534L14.2674 11.0458L14.267 11.0451C14.138 10.8239 13.9534 10.6427 13.7338 10.5178C13.5143 10.3929 13.2668 10.3279 13.016 10.3279H11.7001C10.7657 10.3279 10.0347 11.2205 10.311 12.1694L10.5284 12.9163C10.3145 12.8569 10.172 12.7869 10.0788 12.7293C9.89036 12.613 9.69055 12.4184 9.49245 11.9781C9.00489 10.8945 8.83928 9.09967 8.83928 6.30883V3.88235Z" fill="white"/>
</svg>
