<svg width="72" height="72" viewBox="0 0 72 72" fill="none" xmlns="http://www.w3.org/2000/svg">
<path d="M51 63V57C51 53.8174 49.7357 50.7652 47.4853 48.5147C45.2348 46.2643 42.1826 45 39 45H15C11.8174 45 8.76516 46.2643 6.51472 48.5147C4.26428 50.7652 3 53.8174 3 57V63" stroke="black" stroke-width="5" stroke-linecap="round" stroke-linejoin="round"/>
<path d="M27 33C33.6274 33 39 27.6274 39 21C39 14.3726 33.6274 9 27 9C20.3726 9 15 14.3726 15 21C15 27.6274 20.3726 33 27 33Z" stroke="black" stroke-width="5" stroke-linecap="round" stroke-linejoin="round"/>
<path d="M69 63V57C68.998 54.3412 68.1131 51.7583 66.4841 49.657C64.8551 47.5556 62.5744 46.0547 60 45.39" stroke="black" stroke-width="5" stroke-linecap="round" stroke-linejoin="round"/>
<path d="M48 9.39001C50.5812 10.0509 52.8691 11.5521 54.5029 13.6569C56.1367 15.7618 57.0235 18.3505 57.0235 21.015C57.0235 23.6795 56.1367 26.2683 54.5029 28.3731C52.8691 30.4779 50.5812 31.9791 48 32.64" stroke="black" stroke-width="5" stroke-linecap="round" stroke-linejoin="round"/>
</svg>
