<svg width="160" height="160" viewBox="0 0 160 160" fill="none" xmlns="http://www.w3.org/2000/svg">
<rect width="160" height="160" rx="10" fill="white"/>
<path d="M68.3397 141.644C68.8277 141.78 69.2037 142.024 69.4677 142.376C69.7397 142.728 69.8757 143.168 69.8757 143.696C69.8757 144.424 69.6237 144.992 69.1197 145.4C68.6237 145.8 67.9277 146 67.0317 146H63.3597V137.54H66.8997C67.7717 137.54 68.4517 137.736 68.9397 138.128C69.4357 138.512 69.6837 139.052 69.6837 139.748C69.6837 140.196 69.5637 140.584 69.3237 140.912C69.0917 141.24 68.7637 141.484 68.3397 141.644ZM64.5717 141.2H66.7077C67.8917 141.2 68.4837 140.752 68.4837 139.856C68.4837 139.408 68.3357 139.076 68.0397 138.86C67.7517 138.644 67.3077 138.536 66.7077 138.536H64.5717V141.2ZM66.8997 145.004C67.5157 145.004 67.9677 144.892 68.2557 144.668C68.5437 144.444 68.6877 144.096 68.6877 143.624C68.6877 143.144 68.5397 142.788 68.2437 142.556C67.9557 142.316 67.5077 142.196 66.8997 142.196H64.5717V145.004H66.8997ZM71.5885 146V140.144H72.8005V146H71.5885ZM71.5045 137.528H72.8965V138.788H71.5045V137.528ZM74.7348 146V137.54H75.9468V146H74.7348ZM77.881 146V137.54H79.093V146H77.881ZM81.0273 146V140.144H82.2393V146H81.0273ZM80.9433 137.528H82.3353V138.788H80.9433V137.528ZM87.3295 140C88.7295 140 89.4295 140.788 89.4295 142.364V146H88.2175V142.424C88.2175 141.928 88.1175 141.564 87.9175 141.332C87.7255 141.1 87.4215 140.984 87.0055 140.984C86.5175 140.984 86.1255 141.136 85.8295 141.44C85.5335 141.744 85.3855 142.152 85.3855 142.664V146H84.1735V140.144H85.3615V141.08C85.5535 140.728 85.8215 140.46 86.1655 140.276C86.5095 140.092 86.8975 140 87.3295 140ZM96.7756 140.144V145.532C96.7756 146.428 96.5356 147.104 96.0556 147.56C95.5836 148.016 94.8836 148.244 93.9556 148.244C93.4516 148.244 92.9716 148.176 92.5156 148.04C92.0676 147.912 91.6676 147.724 91.3156 147.476L91.6876 146.6C92.0716 146.848 92.4396 147.024 92.7916 147.128C93.1516 147.24 93.5356 147.296 93.9436 147.296C95.0396 147.296 95.5876 146.74 95.5876 145.628V144.704C95.4196 145.056 95.1636 145.332 94.8196 145.532C94.4756 145.724 94.0756 145.82 93.6196 145.82C93.1076 145.82 92.6516 145.7 92.2516 145.46C91.8516 145.22 91.5396 144.88 91.3156 144.44C91.0996 144 90.9916 143.492 90.9916 142.916C90.9916 142.34 91.1036 141.832 91.3276 141.392C91.5516 140.952 91.8596 140.612 92.2516 140.372C92.6516 140.124 93.1076 140 93.6196 140C94.0676 140 94.4596 140.096 94.7956 140.288C95.1396 140.48 95.3996 140.752 95.5756 141.104V140.144H96.7756ZM93.9076 144.86C94.4276 144.86 94.8356 144.688 95.1316 144.344C95.4276 144 95.5756 143.524 95.5756 142.916C95.5756 142.316 95.4276 141.844 95.1316 141.5C94.8436 141.148 94.4356 140.972 93.9076 140.972C93.3796 140.972 92.9636 141.144 92.6596 141.488C92.3636 141.832 92.2156 142.308 92.2156 142.916C92.2156 143.524 92.3676 144 92.6716 144.344C92.9756 144.688 93.3876 144.86 93.9076 144.86Z" fill="#999999"/>
<path d="M107 56H53C49.6863 56 47 58.6863 47 62V98C47 101.314 49.6863 104 53 104H107C110.314 104 113 101.314 113 98V62C113 58.6863 110.314 56 107 56Z" stroke="black" stroke-width="5" stroke-linecap="round" stroke-linejoin="round"/>
<path d="M47 74H113" stroke="black" stroke-width="5" stroke-linecap="round" stroke-linejoin="round"/>
</svg>
