<svg width="120" height="33" viewBox="0 0 120 33" fill="none" xmlns="http://www.w3.org/2000/svg">
<path d="M0 33V26.8872C0 24.2176 0.0935874 21.3365 1.07757 19.0999C1.50298 18.1329 2.11014 17.2439 2.9663 16.536C2.12297 15.8503 1.52041 14.9852 1.09576 14.0414C0.100876 11.8302 0 8.96459 0 6.30883V0H7.71429V3.88235V6.30883C7.71429 9.06707 7.86505 11.1029 8.46653 12.4397C8.7384 13.044 9.07318 13.4307 9.48783 13.6866C9.91454 13.95 10.5817 14.1706 11.6679 14.1706H12.0653L11.3911 11.8549C11.3325 11.6534 11.4866 11.4529 11.7001 11.4529H13.016C13.0727 11.4529 13.1283 11.4676 13.1774 11.4955C13.2264 11.5234 13.2671 11.5636 13.2952 11.6118L15.4066 15.2382H17.7026C18.4128 15.2382 19.6312 15.8031 19.6312 16.5C19.6312 17.1969 18.4128 17.7618 17.7026 17.7618H15.4066L13.295 21.3882C13.2378 21.4863 13.1313 21.5471 13.016 21.5471H11.7001C11.4866 21.5471 11.3325 21.3464 11.3911 21.1449L12.0675 18.8218L11.706 18.829C10.6144 18.8508 9.93976 19.0867 9.50383 19.3667C9.07804 19.6401 8.73628 20.0473 8.46154 20.6718C7.85689 22.0462 7.71429 24.1106 7.71429 26.8872V29.1177V33H0Z" fill="white"/>
<path fill-rule="evenodd" clip-rule="evenodd" d="M8.83928 3.88235V0H10.6071C19.6607 0 27 7.3873 27 16.5C27 25.6127 19.6607 33 10.6071 33H8.83928V29.1177V26.8872C8.83928 24.0768 8.99645 22.2496 9.49128 21.1248C9.69506 20.6616 9.90652 20.4451 10.1117 20.3133C10.2015 20.2556 10.3307 20.1885 10.5155 20.1278L10.311 20.8304C10.0349 21.7786 10.7649 22.6721 11.7001 22.6721H13.016C13.5252 22.6721 14.0049 22.4041 14.2668 21.9549L16.0534 18.8868H17.7026C18.2957 18.8868 18.9709 18.6711 19.498 18.3652C19.7709 18.2068 20.0612 17.9918 20.2953 17.7098C20.53 17.4271 20.7562 17.0154 20.7562 16.5C20.7562 15.9846 20.53 15.573 20.2953 15.2902C20.0612 15.0082 19.7709 14.7932 19.498 14.6348C18.9709 14.3289 18.2957 14.1132 17.7026 14.1132H16.0534L14.2674 11.0458L14.267 11.0451C14.138 10.8239 13.9534 10.6427 13.7338 10.5178C13.5143 10.3929 13.2668 10.3279 13.016 10.3279H11.7001C10.7657 10.3279 10.0347 11.2205 10.311 12.1694L10.5284 12.9163C10.3145 12.8569 10.172 12.7869 10.0788 12.7293C9.89036 12.613 9.69055 12.4184 9.49245 11.9781C9.00489 10.8945 8.83928 9.09967 8.83928 6.30883V3.88235Z" fill="white"/>
<path d="M43.4812 9.37594C45.8731 9.37594 47.7017 10.0226 48.9671 11.3158C50.2479 12.594 50.8883 14.4286 50.8883 16.8195C50.8883 19.2105 50.2479 21.0526 48.9671 22.3459C47.7017 23.6241 45.8731 24.2632 43.4812 24.2632H37V9.37594H43.4812ZM43.0877 21.3308C44.3685 21.3308 45.3098 20.9549 45.9117 20.203C46.5135 19.4511 46.8144 18.3233 46.8144 16.8195C46.8144 15.3158 46.5135 14.188 45.9117 13.4361C45.3098 12.6842 44.3685 12.3083 43.0877 12.3083H40.9813V21.3308H43.0877Z" fill="white"/>
<path d="M59.7495 12.7594C60.2742 12.7594 60.6908 12.8421 60.9995 13.0075L60.5828 16.2556C60.4285 16.1654 60.2202 16.0902 59.9578 16.0301C59.6955 15.9549 59.4177 15.9173 59.1245 15.9173C58.3838 15.9173 57.7666 16.1504 57.2728 16.6165C56.779 17.0677 56.5321 17.7218 56.5321 18.5789V24.2632H52.597V12.985H56.0691L56.2311 15.4211C56.5089 14.5639 56.941 13.9098 57.5274 13.4586C58.1292 12.9925 58.8699 12.7594 59.7495 12.7594Z" fill="white"/>
<path d="M73.376 12.985V24.2632H69.8576L69.7419 22.1654C69.0166 23.7143 67.6818 24.4887 65.7374 24.4887C64.5029 24.4887 63.5307 24.1729 62.8209 23.5414C62.1264 22.8947 61.7792 21.8872 61.7792 20.5188V12.985H65.7143V19.5489C65.7143 20.2857 65.8454 20.8045 66.1078 21.1053C66.3701 21.406 66.7713 21.5564 67.3114 21.5564C67.9595 21.5564 68.4765 21.3459 68.8623 20.9248C69.2481 20.4887 69.4409 19.8346 69.4409 18.9624V12.985H73.376Z" fill="white"/>
<path d="M82.9385 12.7594C84.4508 12.7594 85.6235 13.2707 86.4568 14.2932C87.2901 15.3158 87.7068 16.7444 87.7068 18.5789C87.7068 20.4436 87.2824 21.8947 86.4337 22.9323C85.585 23.9699 84.4199 24.4887 82.9385 24.4887C82.1206 24.4887 81.4108 24.3008 80.8089 23.9248C80.2225 23.5489 79.7673 23.0301 79.4432 22.3684V29H75.5082V12.985H78.9572L79.0729 15.3759C79.3969 14.5789 79.8908 13.9474 80.5543 13.4812C81.2333 13 82.028 12.7594 82.9385 12.7594ZM81.5728 21.6692C82.2672 21.6692 82.7996 21.4211 83.1699 20.9248C83.5557 20.4286 83.7486 19.6617 83.7486 18.6241C83.7486 17.5865 83.5557 16.8195 83.1699 16.3233C82.7996 15.8271 82.2672 15.5789 81.5728 15.5789C80.9092 15.5789 80.3846 15.8271 79.9988 16.3233C79.6284 16.8195 79.4432 17.5489 79.4432 18.5113V18.7368C79.4432 19.6692 79.6284 20.391 79.9988 20.9023C80.3691 21.4135 80.8938 21.6692 81.5728 21.6692Z" fill="white"/>
<path d="M100.416 22.0752C100.709 22.0752 100.948 22.0451 101.133 21.985L100.832 24.1278C100.385 24.3684 99.8601 24.4887 99.2583 24.4887C97.5917 24.4887 96.5964 23.9098 96.2723 22.7519C95.5779 23.9098 94.2045 24.4887 92.1521 24.4887C90.9948 24.4887 90.1075 24.2481 89.4902 23.7669C88.8729 23.2857 88.5643 22.5865 88.5643 21.6692C88.5643 20.7068 88.9115 19.9323 89.6059 19.3459C90.3158 18.7444 91.4731 18.2857 93.078 17.9699L95.6936 17.4737V17.0677C95.6936 16.5564 95.5471 16.1504 95.2539 15.8496C94.9607 15.5489 94.5594 15.3985 94.0502 15.3985C93.4638 15.3985 92.9854 15.5338 92.6151 15.8045C92.2447 16.0752 92.0055 16.5188 91.8975 17.1353L88.7032 16.2331C88.9038 15.1353 89.4593 14.2857 90.3698 13.6842C91.2803 13.0677 92.5071 12.7594 94.0502 12.7594C95.8557 12.7594 97.2291 13.1203 98.1704 13.8421C99.1117 14.5639 99.5824 15.6466 99.5824 17.0902V21.1955C99.5824 21.782 99.8601 22.0752 100.416 22.0752ZM93.5873 22.0075C94.1274 22.0075 94.6134 21.8647 95.0455 21.5789C95.4776 21.2782 95.6936 20.8872 95.6936 20.406V19.4361L93.8187 19.8647C93.3249 19.985 92.97 20.1353 92.754 20.3158C92.5533 20.4812 92.453 20.7218 92.453 21.0376C92.453 21.3534 92.5533 21.594 92.754 21.7594C92.9546 21.9248 93.2323 22.0075 93.5873 22.0075Z" fill="white"/>
<path d="M113.636 8.20301V24.2632H110.095L109.956 22.1203C109.616 22.8571 109.115 23.4361 108.451 23.8571C107.803 24.2782 107.047 24.4887 106.183 24.4887C104.686 24.4887 103.513 23.9774 102.664 22.9549C101.831 21.9323 101.414 20.5038 101.414 18.6692C101.414 16.8045 101.839 15.3534 102.688 14.3158C103.536 13.2782 104.709 12.7594 106.206 12.7594C107.024 12.7594 107.726 12.9474 108.312 13.3233C108.899 13.6992 109.362 14.218 109.701 14.8797V8.20301H113.636ZM107.548 21.6692C108.181 21.6692 108.683 21.4511 109.053 21.015C109.439 20.5639 109.655 19.9173 109.701 19.0752V18.1729C109.655 17.3459 109.439 16.7068 109.053 16.2556C108.683 15.8045 108.181 15.5789 107.548 15.5789C106.854 15.5789 106.314 15.8271 105.928 16.3233C105.558 16.8195 105.373 17.5865 105.373 18.6241C105.373 19.6617 105.558 20.4286 105.928 20.9248C106.314 21.4211 106.854 21.6692 107.548 21.6692Z" fill="white"/>
<path d="M117.708 11.6767C116.906 11.6767 116.32 11.5338 115.949 11.2481C115.594 10.9474 115.417 10.4812 115.417 9.84962C115.417 9.20301 115.594 8.73684 115.949 8.45113C116.32 8.15038 116.906 8 117.708 8C118.511 8 119.09 8.15038 119.444 8.45113C119.815 8.73684 120 9.20301 120 9.84962C120 10.4812 119.815 10.9474 119.444 11.2481C119.09 11.5338 118.511 11.6767 117.708 11.6767ZM119.676 24.2632H115.741V12.985H119.676V24.2632Z" fill="white"/>
</svg>
