<svg width="15" height="15" viewBox="0 0 15 15" fill="none" xmlns="http://www.w3.org/2000/svg">
<path d="M13.125 9.99994V4.99994C13.1248 4.78074 13.0669 4.56545 12.9572 4.37567C12.8475 4.18589 12.6898 4.02829 12.5 3.91869L8.125 1.41869C7.93498 1.30898 7.71942 1.25122 7.5 1.25122C7.28058 1.25122 7.06502 1.30898 6.875 1.41869L2.5 3.91869C2.31016 4.02829 2.15249 4.18589 2.04279 4.37567C1.93309 4.56545 1.87522 4.78074 1.875 4.99994V9.99994C1.87522 10.2191 1.93309 10.4344 2.04279 10.6242C2.15249 10.814 2.31016 10.9716 2.5 11.0812L6.875 13.5812C7.06502 13.6909 7.28058 13.7487 7.5 13.7487C7.71942 13.7487 7.93498 13.6909 8.125 13.5812L12.5 11.0812C12.6898 10.9716 12.8475 10.814 12.9572 10.6242C13.0669 10.4344 13.1248 10.2191 13.125 9.99994Z" stroke="#A276AE" stroke-width="2" stroke-linecap="round" stroke-linejoin="round"/>
</svg>
