<svg width="512" height="512" viewBox="0 0 512 512" fill="none" xmlns="http://www.w3.org/2000/svg">
<rect width="512" height="512" rx="256" fill="#ECEFF1"/>
<path d="M442.272 405.696C431.136 396.896 417.568 390.56 402.848 387.488L332.672 373.408C325.312 372 320 365.408 320 357.728V341.632C324.512 335.296 328.768 326.88 333.216 318.08C336.672 311.264 341.888 300.992 344.48 298.336C358.688 284.064 372.416 268.032 376.672 247.36C380.64 227.968 376.736 217.792 372.16 209.6C372.16 189.152 371.52 163.552 366.688 144.928C366.112 119.712 361.536 105.536 350.016 93.12C341.888 84.32 329.92 82.272 320.288 80.64C316.512 80 311.296 79.104 309.376 78.08C292.32 68.864 275.456 64.352 255.328 64C213.184 65.728 161.376 92.544 144.032 140.352C138.656 154.912 139.2 178.816 139.648 198.016L139.232 209.568C135.104 217.632 131.04 227.872 135.04 247.328C139.264 268.032 152.992 284.096 167.456 298.56C169.824 300.992 175.168 311.36 178.688 318.208C183.2 326.976 187.488 335.36 192 341.664V357.76C192 365.408 186.656 372 179.264 373.44L109.024 387.52C94.4001 390.624 80.8321 396.896 69.7281 405.696C66.2721 408.48 64.0961 412.544 63.7441 416.96C63.3921 421.376 64.8641 425.696 67.8401 428.992C115.648 481.728 184.224 512 256 512C327.776 512 396.384 481.76 444.16 428.992C447.136 425.696 448.64 421.344 448.256 416.928C447.904 412.512 445.728 408.448 442.272 405.696Z" fill="#455A64"/>
</svg>
