<svg width="72" height="72" viewBox="0 0 72 72" fill="none" xmlns="http://www.w3.org/2000/svg">
<path d="M3 12V30H21" stroke="black" stroke-width="5" stroke-linecap="round" stroke-linejoin="round"/>
<path d="M69 60V42H51" stroke="black" stroke-width="5" stroke-linecap="round" stroke-linejoin="round"/>
<path d="M61.47 27C59.9485 22.7004 57.3626 18.8563 53.9536 15.8263C50.5446 12.7963 46.4236 10.6793 41.9751 9.67282C37.5267 8.6663 32.8957 8.80307 28.5144 10.0704C24.1331 11.3377 20.1442 13.6942 16.92 16.92L3 30M69 42L55.08 55.08C51.8558 58.3059 47.8669 60.6624 43.4856 61.9297C39.1043 63.197 34.4733 63.3338 30.0249 62.3273C25.5764 61.3207 21.4554 59.2037 18.0464 56.1738C14.6374 53.1438 12.0515 49.2997 10.53 45" stroke="black" stroke-width="5" stroke-linecap="round" stroke-linejoin="round"/>
</svg>
