<svg width="30" height="30" viewBox="0 0 30 30" fill="none" xmlns="http://www.w3.org/2000/svg">
<path fill-rule="evenodd" clip-rule="evenodd" d="M23.44 9.01429C23.3857 9.24375 23.1682 9.54622 23.0594 9.74439C22.9906 9.69571 22.8782 9.55317 22.7948 9.46973C22.6861 9.36196 22.6245 9.26461 22.552 9.13597C22.7405 9.13597 22.8891 9.12554 23.0232 9.10121C23.2153 9.06992 23.2769 9.02472 23.44 9.01429ZM17.8798 23.7413C17.8581 23.5988 17.8291 23.4215 17.8037 23.2407C17.9632 23.2303 18.1227 23.2198 18.2821 23.2094H18.2894H18.2966C18.5576 23.192 18.9962 23.1294 19.7284 22.7609C20.1742 22.5349 20.794 21.9335 21.0804 21.5441C21.5371 20.9183 21.7799 20.1361 21.7799 19.333V19.3225V19.3156V19.2947C21.7799 19.0861 21.7582 18.881 21.7256 18.6828C21.7219 18.6689 21.7219 18.6515 21.7183 18.6376L21.7147 18.6272C21.6495 18.2622 21.5298 17.9006 21.3522 17.5529C20.8412 16.5412 19.8589 15.832 18.7461 15.5469C18.5177 15.4878 18.2821 15.4461 18.0429 15.4252L18.003 15.4217L17.9668 15.4183C17.2999 15.3696 16.6148 15.4739 15.9769 15.752C15.9152 15.7798 15.8573 15.8042 15.8029 15.832C15.3136 16.0684 14.8822 16.3987 14.5306 16.7915L14.5234 16.802L14.4545 16.7707C13.1859 16.1866 11.3156 12.8004 10.8733 11.2602C10.326 9.355 9.97806 6.11477 10.4239 4.14004C10.4928 3.8341 10.5798 3.403 10.6124 3.2535C9.32562 2.47126 7.55316 3.53511 7.35381 5.95137C7.03121 9.84521 9.52135 13.9164 12.4247 16.3361C12.8452 16.6872 13.1678 16.9132 13.3997 17.087L14.0232 17.5216C13.9326 17.6885 13.8528 17.8658 13.7876 18.0466C13.3417 17.7928 12.9467 17.5529 12.4609 17.2018C12.0369 16.8993 11.649 16.6142 11.2539 16.2944C10.3804 15.5782 9.92369 15.0845 9.12989 14.2014C8.14761 13.1098 6.46214 10.3841 6.37515 8.49627C4.46858 8.25291 3.28332 11.7087 6.8536 14.862C9.16613 16.9063 10.6849 17.5216 13.6172 18.7002C13.5918 18.8428 13.5773 18.9853 13.5701 19.1313L13.5665 19.1696C13.0953 19.2078 11.3373 18.6689 10.8371 18.4951C6.24466 16.8958 5.17539 14.9837 4.64256 14.4448C3.89226 14.9559 3.76902 16.43 4.43233 17.2817C5.55598 18.7245 7.99537 19.5555 9.89831 19.7606C11.08 19.8892 11.9897 19.9448 13.175 19.8962L13.61 19.8579C13.639 20.0526 13.6825 20.2438 13.7368 20.4281L13.6716 20.442L13.5918 20.4594H13.5882C11.0908 20.9496 9.11176 20.8453 6.72312 20.1117C6.04168 19.9031 5.16089 19.4025 5.04852 19.3434C4.83467 19.5137 4.42871 22.4306 8.57169 22.4619C9.61197 22.4689 10.6559 22.2742 11.5512 21.9995C12.3957 21.7388 13.1641 21.4224 14.0195 21.106C14.1029 21.259 14.1935 21.405 14.2986 21.5476L14.179 21.6519C14.1537 21.6797 14.121 21.704 14.0884 21.7318C13.5157 22.2012 12.1057 22.7748 11.3772 23.0008C9.74608 23.5049 9.0284 23.425 7.40818 23.2442C7.60391 25.3093 10.0179 25.059 11.388 24.541C12.7763 24.016 13.697 23.0217 14.7191 22.0413C14.8351 22.156 14.9583 22.2638 15.0888 22.3646C15.0018 22.5523 14.904 22.7088 14.7916 22.8687C14.1972 23.6996 12.7219 24.7774 11.8484 25.1598C10.9495 25.5527 10.4348 25.577 10.3007 25.6013C10.384 26.1402 10.9712 26.4323 11.6599 26.4288C13.726 26.4114 15.0671 23.8769 15.444 23.1468L15.6579 22.7366C15.7956 22.8131 15.9406 22.8791 16.0892 22.9382L15.9334 23.4319C15.9261 23.4528 15.9189 23.4771 15.9116 23.5014V23.5049C15.821 23.7761 15.6506 24.1342 15.3679 24.5896C14.3168 26.2862 13.3635 26.5435 13.2547 26.5957C13.494 26.9989 14.2262 27.1067 14.7771 26.8912C16.1219 26.3697 16.3248 24.4645 16.5604 23.3937L16.6184 23.1051C16.7634 23.1434 16.9084 23.1712 17.0606 23.192L17.0643 23.2094C17.3107 25.4379 16.2705 26.5122 16.2052 26.6165C16.9193 26.7347 17.5391 26.6096 17.8689 26.0881C18.1879 25.584 18.0357 24.7322 17.9559 24.1168C18.6809 24.0925 19.5254 23.8561 20.0764 23.6822C21.8271 23.1225 22.9869 21.6936 23.469 20.0248C23.5161 19.8649 23.5886 19.7015 23.6285 19.5311C23.9076 19.5311 24.2193 19.5033 24.2193 19.1661C24.2193 19.0931 24.1505 18.874 24.1142 18.8184C24.0055 18.6515 23.5415 18.3699 23.5415 17.9075C23.5415 17.8067 23.6031 17.6398 23.6249 17.5425C23.8532 17.5251 24.1758 17.2991 24.1758 17.0558C24.1758 16.6907 23.5306 16.4995 23.295 16.277C23.0631 16.0545 22.7767 15.4947 22.7767 15.1506C22.7767 14.942 22.668 14.4205 22.9869 14.4205C23.324 14.4205 24.6797 15.0845 24.6797 13.082C24.1505 13.3253 23.7663 13.4887 23.2334 13.0889C22.61 12.623 23.1283 11.0134 24.2991 11.0134C24.5528 11.0134 24.734 11.0655 24.8609 11.2046C24.9733 11.3263 25.053 11.5766 25.0603 11.7852C25.2959 11.6357 25.4662 11.4375 25.6402 11.2081C25.7453 11.069 25.9483 10.5405 25.9483 10.325C25.9483 10.1755 25.8686 10.1233 25.8794 10.0051C25.8976 9.81392 26.173 9.56012 25.8251 9.34805C25.5496 9.18117 25.0059 9.49059 24.0743 9.04211C23.9511 8.983 23.817 8.89261 23.7083 8.8648C23.7119 8.63882 23.7916 8.60405 23.7916 8.37807C23.7916 8.02345 22.639 7.57844 22.2439 7.34551C21.9684 7.1821 21.7147 7.01522 21.4972 6.80663C21.1927 6.51111 21.0441 6.27122 21.0043 6.11478C20.9426 6.08696 20.8846 6.0661 20.7904 6.0661C20.4424 6.0661 20.1815 6.3199 20.1126 6.59455C20.0365 6.51807 19.9785 6.46244 19.8697 6.39291C19.761 6.3199 19.6414 6.26079 19.5327 6.2156C18.7534 5.89575 18.235 5.87836 17.405 5.45769C17.0969 5.65586 16.8395 5.97571 16.941 6.38943C16.5496 6.19126 16.198 6.22603 15.7775 6.28513C15.5238 6.3199 14.7155 6.42767 14.5089 6.41377C14.3059 6.41377 14.0232 6.379 13.8564 6.34771C13.8383 6.57369 13.7296 6.75795 13.7296 7.03608C13.7296 7.31074 13.8166 7.48457 13.8564 7.56453C13.378 7.56453 13.1388 7.56801 12.7545 7.64102C12.3558 7.71751 12.0622 7.73837 11.6599 7.72446C11.5403 8.21119 11.5222 8.45455 11.794 8.93433C11.8919 9.10816 12.113 9.42106 12.2072 9.51145C11.997 9.58098 11.6164 9.65052 11.4025 9.67485C11.4025 10.2485 11.6599 11.0586 11.8158 11.5905C12.2761 13.1689 13.088 14.4865 14.1102 15.759C14.2117 15.8841 14.3059 15.9884 14.4074 16.0823C14.5125 15.985 14.5886 15.9224 14.7046 15.8389C15.6615 15.1262 16.5713 14.8238 17.8762 14.8238C18.496 14.8238 19.2572 15.0358 19.6813 15.241C20.254 15.5191 20.5874 15.7381 21.0151 16.1518C21.6241 16.7359 22.001 17.4347 22.2149 18.2482C22.6535 19.8997 22.0409 21.864 20.5983 22.8617C20.3446 23.0356 20.1126 23.1642 19.8263 23.3033C19.3695 23.5223 18.5467 23.7274 17.8979 23.7483L17.8798 23.7413ZM18.7026 8.48584C18.7026 8.63882 18.8512 8.91347 18.786 8.93085C18.4453 8.90304 18.2785 8.59014 18.2785 8.24248C18.2785 7.58192 19.5508 7.35246 19.7574 8.20076C19.6051 8.12775 19.3007 8.03736 19.1231 8.03736C18.9201 8.03736 18.699 8.29115 18.699 8.48237L18.7026 8.48584Z" fill="#FB0102"/>
</svg>
