<svg width="15" height="17" viewBox="0 0 15 17" fill="none" xmlns="http://www.w3.org/2000/svg">
<path d="M13.125 7.25003C13.125 11.625 7.5 15.375 7.5 15.375C7.5 15.375 1.875 11.625 1.875 7.25003C1.875 5.75819 2.46763 4.32745 3.52252 3.27255C4.57742 2.21766 6.00816 1.62503 7.5 1.62503C8.99184 1.62503 10.4226 2.21766 11.4775 3.27255C12.5324 4.32745 13.125 5.75819 13.125 7.25003Z" stroke="#A276AE" stroke-width="2" stroke-linecap="round" stroke-linejoin="round"/>
<path d="M7.5 9.12503C8.53553 9.12503 9.375 8.28557 9.375 7.25003C9.375 6.2145 8.53553 5.37503 7.5 5.37503C6.46447 5.37503 5.625 6.2145 5.625 7.25003C5.625 8.28557 6.46447 9.12503 7.5 9.12503Z" stroke="#A276AE" stroke-width="2" stroke-linecap="round" stroke-linejoin="round"/>
</svg>
