<svg width="15" height="15" viewBox="0 0 15 15" fill="none" xmlns="http://www.w3.org/2000/svg">
<path d="M14 1V5.5C14 6.88071 12.8807 8 11.5 8C10.1193 8 9 6.88071 9 5.5V1M11.5 1V3M3.5 8C2.11929 8 1 6.88071 1 5.5V3.5C1 2.11929 2.11929 1 3.5 1C4.88071 1 6 2.11929 6 3.5V5.5C6 6.88071 4.88071 8 3.5 8ZM3 8H4V13.5C4 13.7761 3.77614 14 3.5 14C3.22386 14 3 13.7761 3 13.5V8ZM11 8H12V13.5C12 13.7761 11.7761 14 11.5 14C11.2239 14 11 13.7761 11 13.5V8Z" stroke="#A276AE" stroke-width="2" stroke-linecap="round"/>
</svg>
