<svg width="15" height="15" viewBox="0 0 15 15" fill="none" xmlns="http://www.w3.org/2000/svg">
<g clip-path="url(#clip0)">
<path d="M13.3999 6.90608L7.65619 12.6498C6.95253 13.3535 5.99818 13.7488 5.00306 13.7488C4.00795 13.7488 3.05359 13.3535 2.34994 12.6498C1.64628 11.9462 1.25098 10.9918 1.25098 9.9967C1.25098 9.00159 1.64628 8.04723 2.34994 7.34358L8.09369 1.59983C8.56279 1.13073 9.19903 0.867187 9.86244 0.867188C10.5258 0.867188 11.1621 1.13073 11.6312 1.59983C12.1003 2.06893 12.3638 2.70517 12.3638 3.36858C12.3638 4.03199 12.1003 4.66823 11.6312 5.13733L5.88119 10.8811C5.64664 11.1156 5.32852 11.2474 4.99681 11.2474C4.66511 11.2474 4.34699 11.1156 4.11244 10.8811C3.87789 10.6465 3.74612 10.3284 3.74612 9.9967C3.74612 9.665 3.87789 9.34688 4.11244 9.11233L9.41869 3.81233" stroke="#A276AE" stroke-width="2" stroke-linecap="round" stroke-linejoin="round"/>
</g>
<defs>
<clipPath id="clip0">
<path d="M0 0H15V15H0V0Z" fill="white"/>
</clipPath>
</defs>
</svg>
