<svg width="15" height="15" viewBox="0 0 15 15" fill="none" xmlns="http://www.w3.org/2000/svg">
<path d="M13.7494 10.5751V12.4501C13.7501 12.6241 13.7145 12.7964 13.6447 12.9559C13.575 13.1154 13.4727 13.2586 13.3445 13.3762C13.2162 13.4939 13.0648 13.5835 12.8999 13.6393C12.735 13.695 12.5603 13.7157 12.3869 13.7001C10.4637 13.4911 8.61628 12.8339 6.99316 11.7813C5.48305 10.8217 4.20274 9.54142 3.24316 8.03131C2.1869 6.40081 1.52956 4.54443 1.32441 2.61256C1.30879 2.43973 1.32933 2.26554 1.38472 2.10108C1.44011 1.93662 1.52914 1.78549 1.64614 1.65732C1.76313 1.52916 1.90554 1.42675 2.06428 1.35664C2.22302 1.28652 2.39462 1.25022 2.56816 1.25006H4.44316C4.74648 1.24708 5.04053 1.35448 5.27051 1.55227C5.50049 1.75005 5.65071 2.02471 5.69316 2.32506C5.7723 2.9251 5.91907 3.51426 6.13066 4.08131C6.21475 4.30501 6.23295 4.54813 6.1831 4.78186C6.13325 5.01559 6.01745 5.23013 5.84941 5.40006L5.05566 6.19381C5.94538 7.75853 7.24094 9.05409 8.80566 9.94381L9.59941 9.15006C9.76934 8.98202 9.98388 8.86622 10.2176 8.81637C10.4513 8.76652 10.6945 8.78472 10.9182 8.86881C11.4852 9.0804 12.0744 9.22717 12.6744 9.30631C12.978 9.34914 13.2553 9.50206 13.4535 9.73599C13.6517 9.96993 13.757 10.2685 13.7494 10.5751Z" stroke="#A276AE" stroke-width="2" stroke-linecap="round" stroke-linejoin="round"/>
</svg>
