<svg width="21" height="19" viewBox="0 0 21 19" fill="none" xmlns="http://www.w3.org/2000/svg">
<path d="M1.7915 3.1665V7.9165H6.5415" stroke="#A276AE" stroke-width="2" stroke-linecap="round" stroke-linejoin="round"/>
<path d="M19.2085 15.8335V11.0835H14.4585" stroke="#A276AE" stroke-width="2" stroke-linecap="round" stroke-linejoin="round"/>
<path d="M17.2211 7.12508C16.8196 5.99045 16.1372 4.97602 15.2376 4.17645C14.338 3.37688 13.2505 2.81823 12.0766 2.55262C10.9027 2.28701 9.68066 2.3231 8.52448 2.65753C7.3683 2.99195 6.31568 3.61381 5.46484 4.46508L1.7915 7.91675M19.2082 11.0834L15.5348 14.5351C14.684 15.3863 13.6314 16.0082 12.4752 16.3426C11.319 16.6771 10.097 16.7132 8.92306 16.4475C7.74916 16.1819 6.66168 15.6233 5.76208 14.8237C4.86248 14.0241 4.18009 13.0097 3.77859 11.8751" stroke="#A276AE" stroke-width="2" stroke-linecap="round" stroke-linejoin="round"/>
</svg>
