<svg width="21" height="19" viewBox="0 0 21 19" fill="none" xmlns="http://www.w3.org/2000/svg">
<path d="M1.79199 3.16663V7.91663H6.54199" stroke="white" stroke-width="2" stroke-linecap="round" stroke-linejoin="round"/>
<path d="M19.208 15.8334V11.0834H14.458" stroke="white" stroke-width="2" stroke-linecap="round" stroke-linejoin="round"/>
<path d="M17.2216 7.12496C16.8201 5.99033 16.1377 4.9759 15.2381 4.17633C14.3385 3.37676 13.251 2.81811 12.0771 2.5525C10.9032 2.28689 9.68114 2.32298 8.52497 2.6574C7.36879 2.99183 6.31617 3.61369 5.46533 4.46496L1.79199 7.91662M19.2087 11.0833L15.5353 14.535C14.6845 15.3862 13.6319 16.0081 12.4757 16.3425C11.3195 16.6769 10.0975 16.713 8.92355 16.4474C7.74965 16.1818 6.66217 15.6232 5.76257 14.8236C4.86297 14.024 4.18058 13.0096 3.77908 11.875" stroke="white" stroke-width="2" stroke-linecap="round" stroke-linejoin="round"/>
</svg>
