<svg width="20" height="20" viewBox="0 0 20 20" fill="none" xmlns="http://www.w3.org/2000/svg">
<path d="M16.667 1.66667H3.33366C2.41318 1.66667 1.66699 2.41286 1.66699 3.33333V6.66667C1.66699 7.58714 2.41318 8.33333 3.33366 8.33333H16.667C17.5875 8.33333 18.3337 7.58714 18.3337 6.66667V3.33333C18.3337 2.41286 17.5875 1.66667 16.667 1.66667Z" stroke="#999999" stroke-width="2" stroke-linecap="round" stroke-linejoin="round"/>
<path d="M16.667 11.6667H3.33366C2.41318 11.6667 1.66699 12.4129 1.66699 13.3333V16.6667C1.66699 17.5871 2.41318 18.3333 3.33366 18.3333H16.667C17.5875 18.3333 18.3337 17.5871 18.3337 16.6667V13.3333C18.3337 12.4129 17.5875 11.6667 16.667 11.6667Z" stroke="#999999" stroke-width="2" stroke-linecap="round" stroke-linejoin="round"/>
<path d="M5 5H5.00833" stroke="#999999" stroke-width="2" stroke-linecap="round" stroke-linejoin="round"/>
<path d="M5 15H5.00833" stroke="#999999" stroke-width="2" stroke-linecap="round" stroke-linejoin="round"/>
</svg>
