<svg width="12" height="12" viewBox="0 0 12 12" fill="none" xmlns="http://www.w3.org/2000/svg">
<rect width="12" height="12" rx="6" fill="url(#paint0_linear)"/>
<path fill-rule="evenodd" clip-rule="evenodd" d="M7.3125 6.5897C7.13297 6.74954 7 6.96798 7 7.21139V8.09073C7 8.31875 6.88867 8.53169 6.70312 8.65815L6.36979 8.88549C6.14583 9.03817 5.85417 9.03817 5.63021 8.88549L5.29688 8.65815C5.11133 8.53169 5 8.31875 5 8.09073V7.21139C5 6.96798 4.86703 6.74954 4.6875 6.5897C4.26628 6.21459 4 5.662 4 5.04588C4 3.91597 4.89551 3 6 3C7.10449 3 8 3.91597 8 5.04588C8 5.662 7.73372 6.21459 7.3125 6.5897ZM6 3.51147C5.90788 3.51147 5.83333 3.58781 5.83333 3.68196C5.83333 3.77611 5.90788 3.85245 6 3.85245C6.64437 3.85245 7.16667 4.38673 7.16667 5.04588C7.16667 5.14004 7.24121 5.21637 7.33333 5.21637C7.42546 5.21637 7.5 5.14004 7.5 5.04588C7.5 4.19843 6.82845 3.51147 6 3.51147ZM5.5 7.43275C5.5 7.33859 5.57462 7.26226 5.66667 7.26226H6.33334C6.42538 7.26226 6.5 7.33859 6.5 7.43275C6.5 7.52691 6.42538 7.60324 6.33334 7.60324H5.66667C5.57462 7.60324 5.5 7.52691 5.5 7.43275ZM5.5 8.11471C5.5 8.02055 5.57462 7.94422 5.66667 7.94422H6.33334C6.42538 7.94422 6.5 8.02055 6.5 8.11471C6.5 8.20887 6.42538 8.2852 6.33334 8.2852H5.66667C5.57462 8.2852 5.5 8.20887 5.5 8.11471Z" fill="white"/>
<defs>
<linearGradient id="paint0_linear" x1="-1.01702e-07" y1="6.22222" x2="12" y2="6.22222" gradientUnits="userSpaceOnUse">
<stop stop-color="#FEB692"/>
<stop offset="1" stop-color="#EA5455"/>
</linearGradient>
</defs>
</svg>
