<svg width="76" height="16" viewBox="0 0 76 16" fill="none" xmlns="http://www.w3.org/2000/svg">
<rect width="76" height="16" rx="2" fill="url(#paint0_linear)"/>
<path fill-rule="evenodd" clip-rule="evenodd" d="M39.2824 8.78627C39.0368 8.99938 38.8549 9.29064 38.8549 9.61519V10.7876C38.8549 11.0917 38.7026 11.3756 38.4488 11.5442L37.9929 11.8473C37.6865 12.0509 37.2876 12.0509 36.9812 11.8473L36.5253 11.5442C36.2715 11.3756 36.1192 11.0917 36.1192 10.7876V9.61519C36.1192 9.29064 35.9373 8.99938 35.6917 8.78627C35.1155 8.28612 34.7513 7.54933 34.7513 6.72784C34.7513 5.22129 35.9762 4 37.487 4C38.9979 4 40.2228 5.22129 40.2228 6.72784C40.2228 7.54933 39.8586 8.28612 39.2824 8.78627ZM37.487 4.68196C37.361 4.68196 37.2591 4.78374 37.2591 4.90928C37.2591 5.03482 37.361 5.1366 37.487 5.1366C38.3685 5.1366 39.0829 5.84898 39.0829 6.72784C39.0829 6.85338 39.1849 6.95516 39.3109 6.95516C39.4369 6.95516 39.5389 6.85338 39.5389 6.72784C39.5389 5.5979 38.6203 4.68196 37.487 4.68196ZM36.8031 9.91033C36.8031 9.78478 36.9052 9.68301 37.0311 9.68301H37.943C38.0689 9.68301 38.171 9.78478 38.171 9.91033C38.171 10.0359 38.0689 10.1376 37.943 10.1376H37.0311C36.9052 10.1376 36.8031 10.0359 36.8031 9.91033ZM36.8031 10.8196C36.8031 10.6941 36.9052 10.5923 37.0311 10.5923H37.943C38.0689 10.5923 38.171 10.6941 38.171 10.8196C38.171 10.9452 38.0689 11.0469 37.943 11.0469H37.0311C36.9052 11.0469 36.8031 10.9452 36.8031 10.8196Z" fill="white"/>
<path d="M8.77874 5.49955C8.37577 5.38874 7.9716 5.33333 7.56621 5.33333C7.12222 5.33333 6.73132 5.40319 6.3935 5.54291C6.0581 5.68022 5.7987 5.87654 5.61531 6.13189C5.43434 6.38482 5.34385 6.68112 5.34385 7.02078C5.34385 7.37007 5.43313 7.6495 5.61169 7.85908C5.79267 8.06865 6.00622 8.22283 6.25234 8.32159C6.49847 8.42036 6.80492 8.5143 7.17169 8.60343C7.47331 8.67811 7.69169 8.74676 7.82682 8.8094C7.96436 8.86962 8.03313 8.95634 8.03313 9.06956C8.03313 9.24782 7.89438 9.33695 7.61689 9.33695C7.35146 9.33695 7.02088 9.25745 6.62515 9.09846C6.23183 8.93707 5.90366 8.74797 5.64065 8.53117L5 9.81753C5.34264 10.0801 5.74682 10.2837 6.21253 10.4282C6.68065 10.5727 7.14394 10.645 7.60241 10.645C8.00779 10.645 8.37577 10.5848 8.70635 10.4643C9.03934 10.3439 9.30236 10.1596 9.4954 9.91147C9.69085 9.66336 9.78858 9.35381 9.78858 8.98284C9.78858 8.61668 9.69568 8.324 9.50988 8.10479C9.32649 7.88558 9.11173 7.72418 8.86561 7.6206C8.6219 7.51701 8.31183 7.41584 7.9354 7.31707C7.64584 7.2424 7.4335 7.17495 7.29837 7.11472C7.16566 7.05209 7.0993 6.96658 7.0993 6.85818C7.0993 6.71364 7.20547 6.64137 7.41782 6.64137C7.63016 6.64137 7.90765 6.7028 8.2503 6.82566C8.59536 6.94851 8.91387 7.08943 9.20584 7.24842L9.82839 5.94761C9.53159 5.75971 9.18171 5.61036 8.77874 5.49955Z" fill="white"/>
<path d="M14.7869 7.75429V10.5944H16.2854V5.4056H14.4684L13.3355 8.11563L12.199 5.4056H10.382V10.5944H11.8805V7.75429L12.7709 10.0921H13.8965L14.7869 7.75429Z" fill="white"/>
<path fill-rule="evenodd" clip-rule="evenodd" d="M18.7646 9.86089L18.4968 10.5944H16.7341L18.9275 5.4056H20.6902L22.804 10.5944H20.9725L20.7119 9.86089H18.7646ZM19.7563 7.11472L19.2098 8.63234H20.292L19.7563 7.11472Z" fill="white"/>
<path fill-rule="evenodd" clip-rule="evenodd" d="M24.9683 9.24661H25.6125L26.2351 10.5944H28.1751L27.1544 8.90696C27.4199 8.74315 27.6226 8.52273 27.7625 8.24571C27.9049 7.96628 27.9761 7.63866 27.9761 7.26287C27.9761 6.67269 27.783 6.2162 27.3969 5.89341C27.0133 5.5682 26.4679 5.4056 25.7609 5.4056H23.2454V10.5944H24.9683V9.24661ZM26.1916 7.77959C26.0927 7.89039 25.9491 7.9458 25.7609 7.9458H24.9683V6.71003H25.7609C25.9467 6.71003 26.0903 6.76302 26.1916 6.86902C26.293 6.97501 26.3437 7.12436 26.3437 7.31707C26.3437 7.5146 26.293 7.66878 26.1916 7.77959Z" fill="white"/>
<path d="M31.628 6.76061V10.5944H29.9087V6.76061H28.432V5.4056H33.112V6.76061H31.628Z" fill="white"/>
<path d="M45.7402 5.61518C45.3396 5.44173 44.9415 5.35501 44.5458 5.35501C44.0077 5.35501 43.5239 5.46823 43.0944 5.69467C42.6673 5.92111 42.3331 6.23427 42.0918 6.63415C41.8505 7.03403 41.7298 7.4857 41.7298 7.98916C41.7298 8.49744 41.848 8.95513 42.0845 9.36224C42.321 9.76935 42.6479 10.0885 43.0654 10.3198C43.4853 10.551 43.957 10.6667 44.4806 10.6667C44.8788 10.6667 45.2817 10.5739 45.6895 10.3884C46.0973 10.2005 46.4472 9.94881 46.7392 9.63324L45.7474 8.57453C45.5785 8.7576 45.3867 8.90214 45.1719 9.00813C44.9572 9.11412 44.7557 9.16712 44.5675 9.16712C44.3648 9.16712 44.1802 9.11533 44.0137 9.01174C43.8496 8.90816 43.7217 8.76483 43.63 8.58175C43.5383 8.39868 43.4925 8.19392 43.4925 7.96748C43.4925 7.62301 43.5938 7.33996 43.7965 7.11834C43.9992 6.89431 44.2562 6.78229 44.5675 6.78229C44.7702 6.78229 44.9789 6.84613 45.1937 6.9738C45.4108 7.09907 45.5954 7.26769 45.7474 7.47968L46.7392 6.30172C46.4737 6.01506 46.1408 5.78621 45.7402 5.61518Z" fill="white"/>
<path fill-rule="evenodd" clip-rule="evenodd" d="M49.7613 5.35501C50.3042 5.35501 50.7929 5.46823 51.2272 5.69467C51.6639 5.92111 52.0042 6.23547 52.2479 6.63776C52.494 7.04005 52.6171 7.49292 52.6171 7.99639C52.6171 8.50467 52.494 8.96116 52.2479 9.36585C52.0042 9.77055 51.6639 10.0885 51.2272 10.3198C50.7929 10.551 50.3042 10.6667 49.7613 10.6667C49.2184 10.6667 48.7285 10.5522 48.2918 10.3234C47.8574 10.0946 47.5184 9.77657 47.2747 9.36947C47.031 8.96236 46.9091 8.50467 46.9091 7.99639C46.9091 7.48811 47.031 7.03403 47.2747 6.63415C47.5184 6.23427 47.8574 5.92111 48.2918 5.69467C48.7285 5.46823 49.2184 5.35501 49.7613 5.35501ZM49.783 6.78229C49.5851 6.78229 49.4006 6.83529 49.2292 6.94128C49.0603 7.04728 48.9252 7.19301 48.8238 7.3785C48.7225 7.56399 48.6718 7.77236 48.6718 8.00361C48.6718 8.23487 48.7225 8.44445 48.8238 8.63234C48.9252 8.82024 49.0603 8.96838 49.2292 9.07678C49.4006 9.18519 49.5851 9.23939 49.783 9.23939C49.9809 9.23939 50.1606 9.18519 50.3223 9.07678C50.4864 8.96838 50.6155 8.82024 50.7096 8.63234C50.8037 8.44445 50.8508 8.23487 50.8508 8.00361C50.8508 7.77236 50.8037 7.56399 50.7096 7.3785C50.6155 7.19301 50.4864 7.04728 50.3223 6.94128C50.1606 6.83529 49.9809 6.78229 49.783 6.78229Z" fill="white"/>
<path d="M57.648 7.75429V10.5944H59.1465V5.4056H57.3295L56.1966 8.11563L55.0601 5.4056H53.2431V10.5944H54.7416V7.75429L55.632 10.0921H56.7576L57.648 7.75429Z" fill="white"/>
<path fill-rule="evenodd" clip-rule="evenodd" d="M62.6681 5.4056C63.0831 5.4056 63.4463 5.4598 63.7576 5.5682C64.0712 5.6766 64.3113 5.82957 64.4778 6.0271C64.6467 6.22463 64.7312 6.45468 64.7312 6.71725C64.7312 6.9726 64.6516 7.20145 64.4923 7.40379C64.3355 7.60614 64.1231 7.74706 63.8553 7.82656C64.1666 7.89642 64.4163 8.05059 64.6045 8.28907C64.7927 8.52755 64.8868 8.8106 64.8868 9.13821C64.8868 9.42969 64.8 9.68624 64.6262 9.90786C64.4525 10.1295 64.2088 10.2993 63.8951 10.4173C63.5814 10.5354 63.2146 10.5944 62.7948 10.5944H60.0367V5.4056H62.6681ZM61.7487 7.40379H62.574C62.6922 7.40379 62.7863 7.37007 62.8563 7.30262C62.9287 7.23276 62.9649 7.14122 62.9649 7.028C62.9649 6.9196 62.9287 6.83288 62.8563 6.76784C62.7863 6.70039 62.6922 6.66667 62.574 6.66667H61.7487V7.40379ZM61.7487 9.33695H62.574C62.7332 9.33695 62.8599 9.2984 62.954 9.22132C63.0505 9.14423 63.0988 9.04426 63.0988 8.92141C63.0988 8.80819 63.0505 8.71786 62.954 8.65041C62.8575 8.58055 62.7308 8.54562 62.574 8.54562H61.7487V9.33695Z" fill="white"/>
<path fill-rule="evenodd" clip-rule="evenodd" d="M69.6101 5.69467C69.1758 5.46823 68.6872 5.35501 68.1442 5.35501C67.6013 5.35501 67.1115 5.46823 66.6747 5.69467C66.2404 5.92111 65.9014 6.23427 65.6576 6.63415C65.4139 7.03403 65.2921 7.48811 65.2921 7.99639C65.2921 8.50467 65.4139 8.96236 65.6576 9.36947C65.9014 9.77657 66.2404 10.0946 66.6747 10.3234C67.1115 10.5522 67.6013 10.6667 68.1442 10.6667C68.6872 10.6667 69.1758 10.551 69.6101 10.3198C70.0469 10.0885 70.3871 9.77055 70.6308 9.36585C70.8769 8.96116 71 8.50467 71 7.99639C71 7.49292 70.8769 7.04005 70.6308 6.63776C70.3871 6.23547 70.0469 5.92111 69.6101 5.69467ZM67.6122 6.94128C67.7835 6.83529 67.9681 6.78229 68.1659 6.78229C68.3638 6.78229 68.5436 6.83529 68.7052 6.94128C68.8693 7.04728 68.9984 7.19301 69.0925 7.3785C69.1866 7.56399 69.2337 7.77236 69.2337 8.00361C69.2337 8.23487 69.1866 8.44445 69.0925 8.63234C68.9984 8.82024 68.8693 8.96838 68.7052 9.07678C68.5436 9.18519 68.3638 9.23939 68.1659 9.23939C67.9681 9.23939 67.7835 9.18519 67.6122 9.07678C67.4433 8.96838 67.3081 8.82024 67.2068 8.63234C67.1054 8.44445 67.0548 8.23487 67.0548 8.00361C67.0548 7.77236 67.1054 7.56399 67.2068 7.3785C67.3081 7.19301 67.4433 7.04728 67.6122 6.94128Z" fill="white"/>
<defs>
<linearGradient id="paint0_linear" x1="-6.44113e-07" y1="8.29629" x2="76" y2="8.29629" gradientUnits="userSpaceOnUse">
<stop stop-color="#FEB692"/>
<stop offset="1" stop-color="#EA5455"/>
</linearGradient>
</defs>
</svg>
