<svg width="94" height="24" viewBox="0 0 94 24" fill="none" xmlns="http://www.w3.org/2000/svg">
<g clip-path="url(#clip0)">
<path d="M0 12H30" stroke="#A276AE" stroke-opacity="0.5" stroke-linecap="round" stroke-linejoin="round" stroke-dasharray="5 5"/>
<path d="M39 6.375V15.375C39 17.1966 41.2009 18.75 43.6436 18.75L41.3944 20.498C41.182 20.6631 41.3014 21 41.5714 21H52.4286C52.6992 21 52.8176 20.6627 52.6056 20.498L50.3564 18.75C52.7921 18.75 55 17.2015 55 15.375V6.375C55 4.51105 52.7143 3 50.4286 3H43.5714C41.25 3 39 4.51105 39 6.375ZM47.8571 11.1562V7.21875C47.8571 6.75275 48.2409 6.375 48.7143 6.375H52.4286C52.902 6.375 53.2857 6.75275 53.2857 7.21875V11.1562C53.2857 11.6222 52.902 12 52.4286 12H48.7143C48.2409 12 47.8571 11.6222 47.8571 11.1562ZM40.7143 11.1562V7.21875C40.7143 6.75275 41.098 6.375 41.5714 6.375H45.2857C45.7591 6.375 46.1429 6.75275 46.1429 7.21875V11.1562C46.1429 11.6222 45.7591 12 45.2857 12H41.5714C41.098 12 40.7143 11.6222 40.7143 11.1562ZM42.4286 13.125C43.3754 13.125 44.1429 13.8805 44.1429 14.8125C44.1429 15.7445 43.3754 16.5 42.4286 16.5C41.4818 16.5 40.7143 15.7445 40.7143 14.8125C40.7143 13.8805 41.4818 13.125 42.4286 13.125ZM51.5714 13.125C52.5182 13.125 53.2857 13.8805 53.2857 14.8125C53.2857 15.7445 52.5182 16.5 51.5714 16.5C50.6246 16.5 49.8571 15.7445 49.8571 14.8125C49.8571 13.8805 50.6246 13.125 51.5714 13.125Z" fill="#A276AE"/>
<path d="M64 12H94" stroke="#A276AE" stroke-opacity="0.5" stroke-linecap="round" stroke-linejoin="round" stroke-dasharray="5 5"/>
</g>
<defs>
<clipPath id="clip0">
<rect width="94" height="24" fill="white"/>
</clipPath>
</defs>
</svg>
