<svg width="61" height="60" viewBox="0 0 61 60" fill="none" xmlns="http://www.w3.org/2000/svg">
<path d="M41 40L31 30L21 40" stroke="#A276AE" stroke-width="5" stroke-linecap="round" stroke-linejoin="round"/>
<path d="M31 30V52.5" stroke="#A276AE" stroke-width="5" stroke-linecap="round" stroke-linejoin="round"/>
<path d="M51.9749 45.975C54.4132 44.6456 56.3395 42.5422 57.4496 39.9965C58.5597 37.4509 58.7904 34.608 58.1054 31.9167C57.4204 29.2253 55.8586 26.8387 53.6666 25.1336C51.4745 23.4284 48.7771 22.5018 45.9999 22.5H42.8499C42.0932 19.5731 40.6828 16.8558 38.7248 14.5524C36.7667 12.2491 34.312 10.4196 31.5451 9.20148C28.7783 7.98337 25.7713 7.40836 22.7502 7.51967C19.7291 7.63097 16.7726 8.42571 14.1028 9.84412C11.4331 11.2625 9.11968 13.2677 7.33646 15.7089C5.55323 18.1501 4.34663 20.9638 3.80735 23.9384C3.26807 26.9131 3.41016 29.9713 4.22293 32.8831C5.0357 35.7949 6.49801 38.4846 8.4999 40.75" stroke="#A276AE" stroke-width="5" stroke-linecap="round" stroke-linejoin="round"/>
<path d="M41 40L31 30L21 40" stroke="#A276AE" stroke-width="5" stroke-linecap="round" stroke-linejoin="round"/>
</svg>
