<svg width="35" height="35" viewBox="0 0 35 35" fill="none" xmlns="http://www.w3.org/2000/svg">
<rect width="35" height="35" rx="17.5" fill="white"/>
<path d="M17.5 3C9.48992 3 3 9.48992 3 17.5C3 25.5101 9.48992 32 17.5 32C25.5101 32 32 25.5101 32 17.5C32 9.48992 25.5101 3 17.5 3ZM17.5 8.6129C20.3415 8.6129 22.6452 10.9165 22.6452 13.7581C22.6452 16.5996 20.3415 18.9032 17.5 18.9032C14.6585 18.9032 12.3548 16.5996 12.3548 13.7581C12.3548 10.9165 14.6585 8.6129 17.5 8.6129ZM17.5 28.7258C14.0679 28.7258 10.9925 27.1706 8.93448 24.7383C10.0337 22.6685 12.1853 21.2419 14.6935 21.2419C14.8339 21.2419 14.9742 21.2653 15.1087 21.3062C15.8688 21.5518 16.6639 21.7097 17.5 21.7097C18.3361 21.7097 19.1371 21.5518 19.8913 21.3062C20.0258 21.2653 20.1661 21.2419 20.3065 21.2419C22.8147 21.2419 24.9663 22.6685 26.0655 24.7383C24.0075 27.1706 20.9321 28.7258 17.5 28.7258Z" fill="#A276AE"/>
</svg>
