<svg width="72" height="72" viewBox="0 0 72 72" fill="none" xmlns="http://www.w3.org/2000/svg">
<path d="M60 6H12C8.68629 6 6 8.68629 6 12V24C6 27.3137 8.68629 30 12 30H60C63.3137 30 66 27.3137 66 24V12C66 8.68629 63.3137 6 60 6Z" stroke="black" stroke-width="5" stroke-linecap="round" stroke-linejoin="round"/>
<path d="M60 42H12C8.68629 42 6 44.6863 6 48V60C6 63.3137 8.68629 66 12 66H60C63.3137 66 66 63.3137 66 60V48C66 44.6863 63.3137 42 60 42Z" stroke="black" stroke-width="5" stroke-linecap="round" stroke-linejoin="round"/>
<path d="M18 18H18.03" stroke="black" stroke-width="5" stroke-linecap="round" stroke-linejoin="round"/>
<path d="M18 54H18.03" stroke="black" stroke-width="5" stroke-linecap="round" stroke-linejoin="round"/>
</svg>
