<svg width="17" height="15" viewBox="0 0 17 15" fill="none" xmlns="http://www.w3.org/2000/svg">
<path d="M13.7777 5.71875H10.636L7.74697 0.599326C7.70845 0.531168 7.65282 0.474525 7.58572 0.435132C7.51863 0.395739 7.44244 0.374995 7.36488 0.375L5.56438 0.375C5.27218 0.375 5.06134 0.658052 5.14161 0.942495L6.48937 5.71875H3.6619L2.47439 4.11562C2.39138 4.00346 2.26081 3.9375 2.12254 3.9375H1.02327C0.737115 3.9375 0.527102 4.2097 0.596648 4.4908L1.46281 7.5L0.596648 10.5092C0.527102 10.7903 0.737115 11.0625 1.02327 11.0625H2.12254C2.26108 11.0625 2.39138 10.9965 2.47439 10.8844L3.6619 9.28125H6.48937L5.14161 14.0572C5.06134 14.3417 5.27218 14.625 5.56438 14.625H7.36488C7.52267 14.625 7.66835 14.5393 7.7467 14.4007L10.636 9.28125H13.7777C14.7494 9.28125 16.4166 8.48386 16.4166 7.5C16.4166 6.51614 14.7494 5.71875 13.7777 5.71875Z" fill="white"/>
</svg>
